<svg width="1810" height="300" viewBox="0 0 1810 300" fill="none" xmlns="http://www.w3.org/2000/svg">
<g clip-path="url(#clip0_111_993)">
<rect width="1810" height="300" fill="url(#paint0_linear_111_993)"/>
<path d="M809.477 143.119C809.734 142.211 809.232 141.187 808.193 140.547C805.342 138.795 802.267 137.51 798.761 136.648C796.325 136.047 793.736 136.48 791.669 137.884C789.781 139.167 787.952 140.925 786.12 142.674C795.54 139.706 801.569 142.881 805.49 144.38C807.22 145.041 809.092 144.456 809.473 143.119H809.477Z" fill="url(#paint1_linear_111_993)"/>
<path d="M809.331 136.907C809.408 135.968 808.714 135.057 807.57 134.628C804.43 133.449 801.16 132.769 797.552 132.586C795.044 132.458 792.589 133.372 790.835 135.142C789.232 136.76 787.782 138.829 786.328 140.892C794.988 136.197 801.529 138.174 805.67 138.902C807.496 139.222 809.219 138.296 809.331 136.91V136.907Z" fill="url(#paint2_linear_111_993)"/>
<path d="M809.331 136.907C809.408 135.968 808.714 135.057 807.57 134.628C804.43 133.449 801.16 132.769 797.552 132.586C795.044 132.458 792.589 133.372 790.835 135.142C789.232 136.76 787.782 138.829 786.328 140.892C794.988 136.197 801.529 138.174 805.67 138.902C807.496 139.222 809.219 138.296 809.331 136.91V136.907Z" fill="url(#paint3_linear_111_993)"/>
<path d="M807.706 130.061C807.517 129.137 806.597 128.449 805.375 128.342C802.028 128.053 798.692 128.284 795.171 129.08C792.723 129.634 790.618 131.176 789.428 133.348C788.34 135.334 787.521 137.717 786.697 140.09C793.714 133.241 800.559 133.378 804.743 132.961C806.591 132.778 807.988 131.422 807.709 130.058L807.706 130.061Z" fill="url(#paint4_linear_111_993)"/>
<path d="M811.048 155.153C809.969 146.939 806.755 137.976 798.147 135.484C796.848 135.109 795.407 135.606 794.719 136.751C794.099 137.787 794.099 139.256 796.582 140.989C796.582 140.989 799.3 142.561 800.565 145.934C800.804 146.568 800.075 147.134 799.505 146.757C795.661 144.21 786.182 137.065 792.27 130.283C792.27 130.283 780.154 137.623 784.974 149.934C785.857 152.189 787.227 154.221 788.882 156.006C794.121 161.655 802.078 166.103 811.048 170.323V155.153Z" fill="url(#paint5_linear_111_993)"/>
<path d="M812.62 143.119C812.362 142.211 812.865 141.187 813.903 140.547C816.755 138.795 819.83 137.51 823.335 136.648C825.772 136.047 828.36 136.48 830.427 137.884C832.315 139.167 834.144 140.925 835.976 142.674C826.556 139.706 820.527 142.881 816.606 144.38C814.876 145.041 813.004 144.456 812.623 143.119H812.62Z" fill="url(#paint6_linear_111_993)"/>
<path d="M812.762 136.907C812.684 135.968 813.378 135.057 814.522 134.628C817.662 133.449 820.932 132.769 824.54 132.586C827.048 132.458 829.503 133.372 831.257 135.142C832.86 136.76 834.311 138.829 835.764 140.892C827.104 136.197 820.563 138.174 816.422 138.902C814.597 139.222 812.873 138.296 812.762 136.91V136.907Z" fill="url(#paint7_linear_111_993)"/>
<path d="M812.762 136.907C812.684 135.968 813.378 135.057 814.522 134.628C817.662 133.449 820.932 132.769 824.54 132.586C827.048 132.458 829.503 133.372 831.257 135.142C832.86 136.76 834.311 138.829 835.764 140.892C827.104 136.197 820.563 138.174 816.422 138.902C814.597 139.222 812.873 138.296 812.762 136.91V136.907Z" fill="url(#paint8_linear_111_993)"/>
<path d="M814.387 130.061C814.576 129.137 815.496 128.449 816.717 128.342C820.065 128.053 823.4 128.284 826.922 129.08C829.37 129.634 831.475 131.176 832.665 133.348C833.753 135.334 834.572 137.717 835.396 140.09C828.378 133.241 821.534 133.378 817.35 132.961C815.502 132.778 814.104 131.422 814.383 130.058L814.387 130.061Z" fill="url(#paint9_linear_111_993)"/>
<path d="M811.048 155.153C812.127 146.939 815.341 137.976 823.949 135.484C825.247 135.109 826.689 135.606 827.377 136.751C827.997 137.787 827.997 139.256 825.514 140.989C825.514 140.989 822.796 142.561 821.531 145.934C821.292 146.568 822.021 147.134 822.591 146.757C826.435 144.21 835.913 137.065 829.826 130.283C829.826 130.283 841.942 137.623 837.122 149.934C836.239 152.189 834.869 154.221 833.214 156.006C827.975 161.655 820.018 166.103 811.048 170.323V155.153Z" fill="url(#paint10_linear_111_993)"/>
<path d="M958.684 163.362V134.836H959.32L976.991 156.702V134.836H979.866V163.362H979.211L961.699 141.761V163.362H958.684Z" fill="#262626"/>
<path d="M984.573 134.836H987.868V163.362H984.573V134.836Z" fill="#262626"/>
<path d="M991.634 137.629V134.836H1007.64V137.629H1001.12V163.362H998.147V137.629H991.634Z" fill="#262626"/>
<path d="M1011.4 134.836H1027.41V137.629H1014.35V147.678H1027.41V150.471H1014.35V160.569H1027.41V163.362H1011.4V134.836Z" fill="#262626"/>
<path d="M1032.59 163.362V134.836H1036.84C1041.16 134.836 1044.29 135.18 1046.25 135.865C1049.05 136.836 1051.23 138.516 1052.81 140.907C1054.39 143.299 1055.18 146.149 1055.18 149.458C1055.18 152.314 1054.55 154.829 1053.3 157.001C1052.06 159.172 1050.43 160.777 1048.43 161.808C1046.44 162.843 1043.64 163.359 1040.04 163.359H1032.59V163.362ZM1035.35 160.665H1036.96C1040.95 160.665 1043.72 160.421 1045.26 159.929C1047.44 159.233 1049.15 157.975 1050.39 156.162C1051.63 154.347 1052.25 152.13 1052.25 149.506C1052.25 146.755 1051.58 144.403 1050.23 142.455C1048.89 140.506 1047.01 139.167 1044.6 138.443C1042.79 137.9 1039.82 137.629 1035.67 137.629H1035.36V160.665H1035.35Z" fill="#262626"/>
<path d="M874.899 163.362L862.653 134.836H857.051L844.774 163.362H850.514L859.886 142.4L863.478 150.516H859.886V155.813H865.819L869.159 163.362H874.899Z" fill="#262626"/>
<path d="M913.321 134.369C917.356 134.369 920.828 135.827 923.732 138.746C926.636 141.665 928.089 145.223 928.089 149.42C928.089 153.617 926.655 157.096 923.791 159.977C920.924 162.857 917.45 164.297 913.359 164.297C909.268 164.297 905.518 162.818 902.685 159.862C899.853 156.907 898.434 153.394 898.434 149.324C898.434 146.6 899.094 144.094 900.414 141.807C901.733 139.52 903.549 137.71 905.858 136.375C908.166 135.037 910.655 134.372 913.321 134.372V134.369ZM913.262 139.677C910.621 139.677 908.401 140.593 906.604 142.428C904.803 144.262 903.906 146.591 903.906 149.42C903.906 152.571 905.038 155.063 907.304 156.898C909.064 158.332 911.083 159.049 913.362 159.049C915.935 159.049 918.131 158.118 919.944 156.259C921.756 154.4 922.663 152.107 922.663 149.384C922.663 146.66 921.75 144.377 919.925 142.497C918.1 140.617 915.88 139.68 913.265 139.68L913.262 139.677Z" fill="#262626"/>
<path d="M882.664 163.362H877.265V150.641H885.931C887.676 150.641 889.338 149.843 890.395 148.505C891.422 146.856 891.4 144.714 890.343 142.865L890.238 142.73C889.181 141.356 887.495 140.535 885.727 140.535H877.253V135.304H885.727C889.193 135.304 892.499 136.911 894.567 139.603L894.94 140.114C897.098 143.707 897.089 148.021 894.912 151.373L894.798 151.534C892.729 154.25 889.415 155.872 885.928 155.872H882.66V163.362H882.664Z" fill="#262626"/>
<path d="M950.307 134.836V154.891C950.307 158.571 947.307 161.569 943.62 161.569C939.935 161.569 936.938 158.571 936.938 154.891V134.836H934.208V154.891C934.208 160.077 938.43 164.297 943.62 164.297C948.811 164.297 953.036 160.077 953.036 154.891V134.836H950.307Z" fill="#262626"/>
<line x1="1123.51" y1="120.25" x2="1088.44" y2="181" stroke="#D4D4D4"/>
<path d="M1183.53 174.769L1158.87 150.116C1157.64 148.878 1156.71 147.472 1156.1 145.9C1155.48 144.328 1155.17 142.708 1155.17 141.041C1155.17 137.468 1156.41 134.431 1158.87 131.929C1161.33 129.429 1164.34 128.179 1167.89 128.179C1169.55 128.179 1171.16 128.5 1172.73 129.142C1174.29 129.786 1175.69 130.728 1176.92 131.966L1183.53 138.54L1190.14 131.966C1191.37 130.728 1192.77 129.786 1194.33 129.142C1195.89 128.5 1197.51 128.179 1199.16 128.179C1202.72 128.179 1205.74 129.429 1208.23 131.929C1210.71 134.431 1211.96 137.468 1211.96 141.041C1211.96 142.708 1211.64 144.328 1211 145.9C1210.36 147.472 1209.42 148.878 1208.19 150.116L1183.53 174.769ZM1171.45 150.616L1177.49 144.543L1170.95 138.04C1170.48 137.564 1169.97 137.218 1169.42 137.002C1168.88 136.789 1168.34 136.706 1167.82 136.754C1166.69 136.801 1165.7 137.242 1164.88 138.074C1164.05 138.909 1163.63 139.898 1163.63 141.041C1163.63 141.565 1163.74 142.089 1163.95 142.613C1164.16 143.137 1164.48 143.614 1164.91 144.042L1171.45 150.616ZM1183.53 162.621L1202.22 144.042C1202.65 143.661 1202.95 143.196 1203.14 142.647C1203.33 142.101 1203.43 141.565 1203.43 141.041C1203.43 139.898 1203.02 138.909 1202.22 138.074C1201.41 137.242 1200.44 136.801 1199.31 136.754C1198.78 136.706 1198.25 136.789 1197.71 137.002C1197.16 137.218 1196.65 137.564 1196.18 138.04L1177.56 156.619L1183.53 162.621Z" fill="url(#paint11_linear_111_993)"/>
<path d="M1360.63 167.81C1358.42 167.81 1356.43 167.272 1354.66 166.197C1352.91 165.122 1351.53 163.654 1350.51 161.794C1349.5 159.934 1348.99 157.856 1348.99 155.56C1348.99 153.206 1349.5 151.114 1350.51 149.283C1351.53 147.423 1352.91 145.955 1354.66 144.88C1356.43 143.805 1358.42 143.267 1360.63 143.267C1362.58 143.267 1364.3 143.689 1365.82 144.531C1367.33 145.345 1368.52 146.449 1369.39 147.844L1368.74 148.847V134.287H1372.83V167.287H1368.87V162.274L1369.39 162.971C1368.58 164.512 1367.39 165.703 1365.82 166.546C1364.28 167.389 1362.55 167.81 1360.63 167.81ZM1360.98 163.887C1362.46 163.887 1363.78 163.523 1364.94 162.797C1366.11 162.07 1367.02 161.082 1367.69 159.833C1368.39 158.554 1368.74 157.13 1368.74 155.56C1368.74 153.962 1368.39 152.538 1367.69 151.288C1367.02 150.01 1366.11 149.007 1364.94 148.28C1363.78 147.554 1362.46 147.191 1360.98 147.191C1359.52 147.191 1358.2 147.568 1357.01 148.324C1355.85 149.051 1354.93 150.039 1354.26 151.288C1353.6 152.509 1353.26 153.933 1353.26 155.56C1353.26 157.13 1353.6 158.554 1354.26 159.833C1354.93 161.082 1355.85 162.07 1357.01 162.797C1358.17 163.523 1359.49 163.887 1360.98 163.887Z" fill="#262626"/>
<path d="M1333.98 167.81C1331.71 167.81 1329.7 167.272 1327.92 166.197C1326.15 165.122 1324.75 163.654 1323.74 161.794C1322.72 159.905 1322.21 157.798 1322.21 155.473C1322.21 153.119 1322.71 151.027 1323.69 149.196C1324.71 147.365 1326.08 145.926 1327.79 144.88C1329.54 143.805 1331.48 143.267 1333.63 143.267C1335.38 143.267 1336.92 143.587 1338.25 144.226C1339.62 144.837 1340.77 145.679 1341.7 146.755C1342.66 147.801 1343.38 149.007 1343.88 150.373C1344.4 151.71 1344.66 153.105 1344.66 154.558C1344.66 154.877 1344.63 155.241 1344.57 155.648C1344.55 156.025 1344.5 156.389 1344.44 156.737H1325.18V153.25H1342.09L1340.17 154.819C1340.43 153.308 1340.29 151.957 1339.74 150.765C1339.18 149.574 1338.37 148.629 1337.29 147.932C1336.22 147.234 1335 146.885 1333.63 146.885C1332.27 146.885 1331.02 147.234 1329.88 147.932C1328.75 148.629 1327.86 149.632 1327.22 150.94C1326.61 152.218 1326.37 153.744 1326.48 155.517C1326.37 157.231 1326.63 158.743 1327.27 160.051C1327.94 161.329 1328.87 162.332 1330.06 163.058C1331.28 163.756 1332.6 164.105 1334.03 164.105C1335.59 164.105 1336.92 163.741 1337.99 163.015C1339.07 162.288 1339.94 161.358 1340.61 160.225L1344.01 161.969C1343.54 163.044 1342.82 164.032 1341.83 164.933C1340.87 165.805 1339.72 166.502 1338.38 167.025C1337.08 167.549 1335.61 167.81 1333.98 167.81Z" fill="#262626"/>
<path d="M1283.37 167.287V143.79H1287.33V148.586L1286.77 147.844C1287.35 146.362 1288.28 145.229 1289.56 144.444C1290.84 143.659 1292.27 143.267 1293.87 143.267C1295.7 143.267 1297.35 143.776 1298.8 144.793C1300.28 145.81 1301.3 147.147 1301.85 148.803L1300.72 148.847C1301.33 147.016 1302.36 145.636 1303.81 144.706C1305.26 143.747 1306.88 143.267 1308.65 143.267C1310.28 143.267 1311.75 143.645 1313.05 144.401C1314.39 145.156 1315.45 146.202 1316.24 147.539C1317.02 148.876 1317.41 150.387 1317.41 152.073V167.287H1313.31V153.381C1313.31 152.073 1313.08 150.969 1312.62 150.068C1312.15 149.167 1311.51 148.469 1310.7 147.975C1309.91 147.452 1308.98 147.191 1307.91 147.191C1306.86 147.191 1305.92 147.452 1305.08 147.975C1304.26 148.469 1303.61 149.181 1303.11 150.111C1302.65 151.012 1302.42 152.102 1302.42 153.381V167.287H1298.32V153.381C1298.32 152.073 1298.09 150.969 1297.62 150.068C1297.16 149.167 1296.52 148.469 1295.7 147.975C1294.92 147.452 1293.99 147.191 1292.91 147.191C1291.87 147.191 1290.92 147.452 1290.08 147.975C1289.27 148.469 1288.61 149.181 1288.12 150.111C1287.65 151.012 1287.42 152.102 1287.42 153.381V167.287H1283.37Z" fill="#262626"/>
<path d="M1264.59 167.81C1262.09 167.81 1259.86 167.287 1257.92 166.241C1256 165.195 1254.49 163.756 1253.38 161.925C1252.28 160.094 1251.73 158.016 1251.73 155.691V134.81H1257.66V155.386C1257.66 156.723 1257.95 157.929 1258.53 159.004C1259.14 160.08 1259.97 160.922 1261.01 161.533C1262.06 162.114 1263.25 162.405 1264.59 162.405C1265.95 162.405 1267.14 162.114 1268.16 161.533C1269.21 160.922 1270.02 160.08 1270.6 159.004C1271.21 157.929 1271.52 156.723 1271.52 155.386V134.81H1277.45V155.691C1277.45 158.016 1276.9 160.094 1275.79 161.925C1274.69 163.756 1273.16 165.195 1271.21 166.241C1269.3 167.287 1267.09 167.81 1264.59 167.81Z" fill="#262626"/>
<path d="M1226.15 167.287V134.81H1247.73V140.041H1232.08V148.368H1246.86V153.599H1232.08V162.056H1247.73V167.287H1226.15Z" fill="#262626"/>
<line x1="1440.43" y1="120.25" x2="1405.36" y2="181" stroke="#D4D4D4"/>
<path d="M1501 120.717C1507.35 120.717 1512.49 125.859 1512.49 132.202L1512.49 138.143C1512.49 150.829 1502.2 161.113 1489.52 161.113V161.113L1489.52 132.202C1489.52 125.859 1494.66 120.717 1501 120.717V120.717Z" fill="url(#paint12_linear_111_993)"/>
<mask id="mask0_111_993" style="mask-type:alpha" maskUnits="userSpaceOnUse" x="1489" y="120" width="24" height="42">
<path d="M1501 120.717C1507.35 120.717 1512.49 125.859 1512.49 132.202L1512.49 140.915C1512.49 152.07 1503.45 161.113 1492.29 161.113L1489.52 161.113L1489.52 132.202C1489.52 125.859 1494.66 120.717 1501 120.717V120.717Z" fill="black"/>
</mask>
<g mask="url(#mask0_111_993)">
<g filter="url(#filter0_f_111_993)">
<path d="M1489.52 138.143L1505.36 138.143C1507.74 137.879 1512.09 136.163 1512.09 131.41" stroke="black" stroke-width="2.73531"/>
</g>
</g>
<path d="M1502.19 138.136C1502.32 138.14 1502.45 138.143 1502.59 138.143C1508.06 138.143 1512.49 134.951 1512.49 131.014L1512.49 140.915C1512.49 152.069 1503.45 161.113 1492.29 161.113L1483.58 161.113C1477.23 161.113 1472.09 155.97 1472.09 149.628C1472.09 143.285 1477.23 138.143 1483.58 138.143L1502.19 138.143L1502.19 138.136Z" fill="url(#paint13_linear_111_993)"/>
<path d="M1500.21 178.538C1493.87 178.538 1488.73 173.396 1488.73 167.053L1488.73 161.113C1488.73 148.427 1499.01 138.143 1511.7 138.143V138.143L1511.7 167.053C1511.7 173.396 1506.55 178.538 1500.21 178.538V178.538Z" fill="url(#paint14_linear_111_993)"/>
<mask id="mask1_111_993" style="mask-type:alpha" maskUnits="userSpaceOnUse" x="1488" y="138" width="24" height="41">
<path d="M1500.21 178.538C1493.87 178.538 1488.73 173.396 1488.73 167.053L1488.73 158.34C1488.73 147.186 1497.77 138.143 1508.92 138.143L1511.7 138.143L1511.7 167.053C1511.7 173.396 1506.55 178.538 1500.21 178.538V178.538Z" fill="black"/>
</mask>
<g mask="url(#mask1_111_993)">
<g filter="url(#filter1_f_111_993)">
<path d="M1511.7 161.113L1495.85 161.113C1493.48 161.377 1489.12 163.093 1489.12 167.845" stroke="black" stroke-width="2.73531"/>
</g>
</g>
<path d="M1499.02 161.12C1498.89 161.116 1498.76 161.113 1498.63 161.113C1493.16 161.113 1488.73 164.305 1488.73 168.242V161.113C1488.73 148.427 1499.01 138.143 1511.7 138.143H1529.12C1529.12 150.829 1518.84 161.113 1506.15 161.113H1499.02V161.12Z" fill="url(#paint15_linear_111_993)"/>
<path d="M1677.66 161.743C1675.28 161.743 1673.21 161.281 1671.43 160.358C1669.68 159.411 1668.32 158.087 1667.35 156.387C1666.38 154.686 1665.89 152.67 1665.89 150.338C1665.89 148.031 1666.37 146.027 1667.31 144.327C1668.29 142.626 1669.66 141.315 1671.43 140.392C1673.21 139.469 1675.29 139.007 1677.7 139.007C1680.08 139.007 1682.14 139.469 1683.89 140.392C1685.64 141.315 1686.99 142.626 1687.94 144.327C1688.88 146.027 1689.36 148.043 1689.36 150.375C1689.36 152.682 1688.88 154.699 1687.94 156.423C1686.99 158.123 1685.63 159.435 1683.86 160.358C1682.11 161.281 1680.04 161.743 1677.66 161.743ZM1677.66 156.496C1679.48 156.496 1680.88 155.949 1681.85 154.856C1682.82 153.739 1683.31 152.233 1683.31 150.338C1683.31 148.444 1682.82 146.962 1681.85 145.893C1680.88 144.8 1679.48 144.254 1677.66 144.254C1675.82 144.254 1674.4 144.8 1673.4 145.893C1672.43 146.962 1671.94 148.444 1671.94 150.338C1671.94 152.233 1672.43 153.739 1673.4 154.856C1674.4 155.949 1675.82 156.496 1677.66 156.496Z" fill="#262626"/>
<path d="M1640.53 170.05V145.42H1637.54V139.444H1643.66V143.015H1645.19C1645.97 141.752 1647 140.768 1648.29 140.064C1649.6 139.359 1651.18 139.007 1653.02 139.007C1655.28 139.007 1657.19 139.481 1658.74 140.428C1660.3 141.375 1661.48 142.699 1662.28 144.4C1663.08 146.1 1663.48 148.092 1663.48 150.375C1663.48 152.658 1663.09 154.662 1662.31 156.387C1661.54 158.087 1660.41 159.411 1658.93 160.358C1657.44 161.281 1655.65 161.743 1653.53 161.743C1651.93 161.743 1650.56 161.451 1649.42 160.868C1648.27 160.261 1647.38 159.411 1646.72 158.318H1646.57V170.05H1640.53ZM1651.89 156.496C1653.74 156.496 1655.12 155.949 1656.05 154.856C1656.97 153.763 1657.43 152.27 1657.43 150.375C1657.43 148.48 1656.97 146.986 1656.05 145.893C1655.12 144.8 1653.74 144.254 1651.89 144.254C1650.27 144.254 1648.97 144.715 1647.99 145.638C1647.05 146.537 1646.57 147.788 1646.57 149.391V151.359C1646.57 152.962 1647.05 154.225 1647.99 155.148C1648.97 156.047 1650.27 156.496 1651.89 156.496Z" fill="#262626"/>
<path d="M1620.88 161.706C1618.3 161.706 1616.29 161.087 1614.83 159.848C1613.37 158.585 1612.64 156.933 1612.64 154.893C1612.64 152.731 1613.4 151.067 1614.9 149.901C1616.41 148.735 1618.57 148.152 1621.39 148.152H1627.66V147.314C1627.66 144.958 1626.25 143.78 1623.43 143.78C1620.98 143.78 1619.49 144.63 1618.98 146.331H1612.97C1613.46 143.926 1614.59 142.104 1616.36 140.865C1618.13 139.627 1620.49 139.007 1623.43 139.007C1626.68 139.007 1629.16 139.736 1630.86 141.193C1632.59 142.651 1633.45 144.776 1633.45 147.569V155.33H1636.29V161.305H1630.17V157.735H1628.64C1627.89 158.998 1626.88 159.982 1625.61 160.686C1624.35 161.366 1622.77 161.706 1620.88 161.706ZM1621.79 157.115C1622.93 157.115 1623.94 156.909 1624.81 156.496C1625.69 156.083 1626.38 155.537 1626.89 154.856C1627.4 154.152 1627.66 153.363 1627.66 152.488V152.16H1621.68C1619.49 152.16 1618.4 152.974 1618.4 154.601C1618.4 155.403 1618.7 156.022 1619.31 156.46C1619.92 156.897 1620.74 157.115 1621.79 157.115Z" fill="#262626"/>
<path d="M1604.16 161.305V130.7H1608.24V161.305H1604.16Z" fill="#262626"/>
<path d="M1589.12 161.743C1586.84 161.743 1584.86 161.281 1583.18 160.358C1581.51 159.411 1580.21 158.075 1579.28 156.35C1578.38 154.626 1577.93 152.61 1577.93 150.302C1577.93 147.994 1578.38 146.003 1579.28 144.327C1580.21 142.626 1581.49 141.315 1583.15 140.392C1584.8 139.469 1586.73 139.007 1588.94 139.007C1591.05 139.007 1592.87 139.432 1594.4 140.282C1595.96 141.133 1597.16 142.335 1598.01 143.889C1598.86 145.444 1599.29 147.29 1599.29 149.428V151.067H1581.87C1581.99 153.35 1582.68 155.136 1583.95 156.423C1585.23 157.686 1586.95 158.318 1589.08 158.318C1590.57 158.318 1591.82 158.014 1592.84 157.407C1593.86 156.775 1594.56 155.852 1594.95 154.638H1599.1C1598.57 156.897 1597.42 158.646 1595.64 159.884C1593.89 161.123 1591.72 161.743 1589.12 161.743ZM1582.02 148.079H1595.35C1595.16 146.282 1594.49 144.885 1593.35 143.889C1592.23 142.894 1590.75 142.396 1588.9 142.396C1587.08 142.396 1585.56 142.894 1584.35 143.889C1583.13 144.885 1582.36 146.282 1582.02 148.079Z" fill="#262626"/>
<path d="M1548.11 161.305L1541.18 139.444H1545.41L1550.47 156.423H1550.66L1556.67 139.444H1560.89L1566.91 156.423H1567.09L1572.15 139.444H1576.31L1569.42 161.305H1564.87L1558.82 144.327H1558.67L1552.66 161.305H1548.11Z" fill="#262626"/>
<g opacity="0.2" filter="url(#filter2_f_111_993)">
<circle cx="-43.3245" cy="306.481" r="229.459" fill="url(#paint16_linear_111_993)"/>
</g>
<g opacity="0.2" filter="url(#filter3_f_111_993)">
<ellipse cx="263.958" cy="436.454" rx="308.887" ry="229.459" fill="url(#paint17_linear_111_993)"/>
</g>
</g>
<defs>
<filter id="filter0_f_111_993" x="1475.84" y="117.734" width="51.2948" height="35.4533" filterUnits="userSpaceOnUse" color-interpolation-filters="sRGB">
<feFlood flood-opacity="0" result="BackgroundImageFix"/>
<feBlend mode="normal" in="SourceGraphic" in2="BackgroundImageFix" result="shape"/>
<feGaussianBlur stdDeviation="6.83828" result="effect1_foregroundBlur_111_993"/>
</filter>
<filter id="filter1_f_111_993" x="1474.08" y="146.069" width="51.2948" height="35.4533" filterUnits="userSpaceOnUse" color-interpolation-filters="sRGB">
<feFlood flood-opacity="0" result="BackgroundImageFix"/>
<feBlend mode="normal" in="SourceGraphic" in2="BackgroundImageFix" result="shape"/>
<feGaussianBlur stdDeviation="6.83828" result="effect1_foregroundBlur_111_993"/>
</filter>
<filter id="filter2_f_111_993" x="-433.245" y="-83.4398" width="779.84" height="779.84" filterUnits="userSpaceOnUse" color-interpolation-filters="sRGB">
<feFlood flood-opacity="0" result="BackgroundImageFix"/>
<feBlend mode="normal" in="SourceGraphic" in2="BackgroundImageFix" result="shape"/>
<feGaussianBlur stdDeviation="80.2305" result="effect1_foregroundBlur_111_993"/>
</filter>
<filter id="filter3_f_111_993" x="-205.39" y="46.5337" width="938.697" height="779.84" filterUnits="userSpaceOnUse" color-interpolation-filters="sRGB">
<feFlood flood-opacity="0" result="BackgroundImageFix"/>
<feBlend mode="normal" in="SourceGraphic" in2="BackgroundImageFix" result="shape"/>
<feGaussianBlur stdDeviation="80.2305" result="effect1_foregroundBlur_111_993"/>
</filter>
<linearGradient id="paint0_linear_111_993" x1="0" y1="150" x2="1810" y2="150" gradientUnits="userSpaceOnUse">
<stop stop-color="#FAFAFA"/>
<stop offset="1" stop-color="white"/>
</linearGradient>
<linearGradient id="paint1_linear_111_993" x1="793.516" y1="143.308" x2="818.879" y2="133.914" gradientUnits="userSpaceOnUse">
<stop offset="0.19" stop-color="#9F0737"/>
<stop offset="0.2" stop-color="#A40639"/>
<stop offset="0.29" stop-color="#BC0441"/>
<stop offset="0.39" stop-color="#CE0248"/>
<stop offset="0.51" stop-color="#DB004D"/>
<stop offset="0.67" stop-color="#E20050"/>
<stop offset="1" stop-color="#E50051"/>
</linearGradient>
<linearGradient id="paint2_linear_111_993" x1="797.295" y1="134.079" x2="798.073" y2="141.141" gradientUnits="userSpaceOnUse">
<stop stop-color="#E72B6E"/>
<stop offset="0.08" stop-color="#E83677"/>
<stop offset="0.28" stop-color="#EA4D88"/>
<stop offset="0.47" stop-color="#EB5A93"/>
<stop offset="0.64" stop-color="#EC5F97"/>
</linearGradient>
<linearGradient id="paint3_linear_111_993" x1="795.453" y1="136.73" x2="817.399" y2="136.73" gradientUnits="userSpaceOnUse">
<stop offset="0.19" stop-color="#9F0737"/>
<stop offset="0.2" stop-color="#A40639"/>
<stop offset="0.29" stop-color="#BC0441"/>
<stop offset="0.39" stop-color="#CE0248"/>
<stop offset="0.51" stop-color="#DB004D"/>
<stop offset="0.67" stop-color="#E20050"/>
<stop offset="1" stop-color="#E50051"/>
</linearGradient>
<linearGradient id="paint4_linear_111_993" x1="787.862" y1="134.158" x2="836.27" y2="134.158" gradientUnits="userSpaceOnUse">
<stop offset="0.19" stop-color="#9F0737"/>
<stop offset="0.2" stop-color="#A40639"/>
<stop offset="0.29" stop-color="#BC0441"/>
<stop offset="0.39" stop-color="#CE0248"/>
<stop offset="0.51" stop-color="#DB004D"/>
<stop offset="0.67" stop-color="#E20050"/>
<stop offset="1" stop-color="#E50051"/>
</linearGradient>
<linearGradient id="paint5_linear_111_993" x1="774.332" y1="125.676" x2="818.235" y2="170.342" gradientUnits="userSpaceOnUse">
<stop stop-color="#ED6C77"/>
<stop offset="0.25" stop-color="#EA4A6B"/>
<stop offset="0.83" stop-color="#E50051"/>
</linearGradient>
<linearGradient id="paint6_linear_111_993" x1="819.671" y1="140.52" x2="848.337" y2="140.52" gradientUnits="userSpaceOnUse">
<stop stop-color="#F39200"/>
<stop offset="0.16" stop-color="#ED6C07"/>
<stop offset="0.33" stop-color="#E94D0D"/>
<stop offset="0.47" stop-color="#E63910"/>
<stop offset="0.56" stop-color="#E63312"/>
</linearGradient>
<linearGradient id="paint7_linear_111_993" x1="824.798" y1="134.079" x2="824.019" y2="141.141" gradientUnits="userSpaceOnUse">
<stop stop-color="#E72B6E"/>
<stop offset="0.08" stop-color="#E83677"/>
<stop offset="0.28" stop-color="#EA4D88"/>
<stop offset="0.47" stop-color="#EB5A93"/>
<stop offset="0.64" stop-color="#EC5F97"/>
</linearGradient>
<linearGradient id="paint8_linear_111_993" x1="817.622" y1="136.73" x2="839.565" y2="136.73" gradientUnits="userSpaceOnUse">
<stop stop-color="#F39200"/>
<stop offset="0.16" stop-color="#ED6C07"/>
<stop offset="0.33" stop-color="#E94D0D"/>
<stop offset="0.47" stop-color="#E63910"/>
<stop offset="0.56" stop-color="#E63312"/>
</linearGradient>
<linearGradient id="paint9_linear_111_993" x1="815.518" y1="134.158" x2="863.926" y2="134.158" gradientUnits="userSpaceOnUse">
<stop stop-color="#F39200"/>
<stop offset="0.16" stop-color="#ED6C07"/>
<stop offset="0.33" stop-color="#E94D0D"/>
<stop offset="0.47" stop-color="#E63910"/>
<stop offset="0.56" stop-color="#E63312"/>
</linearGradient>
<linearGradient id="paint10_linear_111_993" x1="824.649" y1="117.642" x2="824.649" y2="174.945" gradientUnits="userSpaceOnUse">
<stop stop-color="#F39200"/>
<stop offset="0.19" stop-color="#F28D00"/>
<stop offset="0.4" stop-color="#F08003"/>
<stop offset="0.63" stop-color="#ED6907"/>
<stop offset="0.85" stop-color="#E94A0D"/>
<stop offset="1" stop-color="#E63312"/>
</linearGradient>
<linearGradient id="paint11_linear_111_993" x1="1183.56" y1="128.179" x2="1183.56" y2="174.769" gradientUnits="userSpaceOnUse">
<stop stop-color="#8CB450"/>
<stop offset="1" stop-color="#5A8C14"/>
</linearGradient>
<linearGradient id="paint12_linear_111_993" x1="1501" y1="161.113" x2="1501" y2="120.717" gradientUnits="userSpaceOnUse">
<stop offset="0.65" stop-color="#A0281E"/>
<stop offset="1" stop-color="#AF3728"/>
</linearGradient>
<linearGradient id="paint13_linear_111_993" x1="1472.09" y1="161.113" x2="1527.8" y2="142.309" gradientUnits="userSpaceOnUse">
<stop stop-color="#A51419"/>
<stop offset="1" stop-color="#BE0A19"/>
</linearGradient>
<linearGradient id="paint14_linear_111_993" x1="1500.21" y1="138.143" x2="1500.21" y2="178.538" gradientUnits="userSpaceOnUse">
<stop offset="0.65" stop-color="#55823C"/>
<stop offset="1" stop-color="#789B3C"/>
</linearGradient>
<linearGradient id="paint15_linear_111_993" x1="1529.12" y1="138.143" x2="1473.41" y2="156.947" gradientUnits="userSpaceOnUse">
<stop stop-color="#698C3C"/>
<stop offset="1" stop-color="#82A53C"/>
</linearGradient>
<linearGradient id="paint16_linear_111_993" x1="-23.2669" y1="77.0213" x2="44.9291" y2="328.143" gradientUnits="userSpaceOnUse">
<stop stop-color="#FFB37E"/>
<stop offset="1" stop-color="#E93864"/>
</linearGradient>
<linearGradient id="paint17_linear_111_993" x1="44.7131" y1="267.168" x2="553.405" y2="267.168" gradientUnits="userSpaceOnUse">
<stop stop-color="#E96D40"/>
<stop offset="1" stop-color="#FF9347"/>
</linearGradient>
<clipPath id="clip0_111_993">
<rect width="1810" height="300" fill="white"/>
</clipPath>
</defs>
</svg>
