<svg width="1810" height="300" viewBox="0 0 1810 300" fill="none" xmlns="http://www.w3.org/2000/svg">
<g clip-path="url(#clip0_130_1139)">
<rect width="1810" height="300" fill="url(#paint0_linear_130_1139)"/>
<g opacity="0.2" filter="url(#filter0_f_130_1139)">
<circle cx="-133.541" cy="306.481" r="229.459" fill="url(#paint1_linear_130_1139)"/>
</g>
<g opacity="0.2" filter="url(#filter1_f_130_1139)">
<ellipse cx="173.742" cy="436.454" rx="308.887" ry="229.459" fill="url(#paint2_linear_130_1139)"/>
</g>
<path d="M490.643 143.119C490.9 142.211 490.398 141.187 489.359 140.547C486.507 138.795 483.431 137.509 479.925 136.646C477.488 136.046 474.899 136.479 472.831 137.884C470.942 139.167 469.113 140.925 467.281 142.674C476.703 139.706 482.734 142.881 486.656 144.381C488.386 145.042 490.259 144.457 490.64 143.119H490.643Z" fill="url(#paint3_linear_130_1139)"/>
<path d="M490.497 136.905C490.574 135.967 489.88 135.056 488.736 134.626C485.595 133.446 482.324 132.767 478.715 132.584C476.207 132.456 473.751 133.37 471.996 135.141C470.393 136.759 468.942 138.828 467.488 140.892C476.151 136.195 482.693 138.173 486.835 138.902C488.661 139.222 490.385 138.295 490.497 136.908V136.905Z" fill="url(#paint4_linear_130_1139)"/>
<path d="M490.497 136.905C490.574 135.967 489.88 135.056 488.736 134.626C485.595 133.446 482.324 132.767 478.715 132.584C476.207 132.456 473.751 133.37 471.996 135.141C470.393 136.759 468.942 138.828 467.488 140.892C476.151 136.195 482.693 138.173 486.835 138.902C488.661 139.222 490.385 138.295 490.497 136.908V136.905Z" fill="url(#paint5_linear_130_1139)"/>
<path d="M488.872 130.058C488.683 129.134 487.762 128.446 486.541 128.339C483.192 128.049 479.856 128.281 476.334 129.076C473.885 129.631 471.779 131.173 470.589 133.346C469.5 135.333 468.682 137.716 467.857 140.09C474.877 133.239 481.723 133.376 485.908 132.959C487.756 132.776 489.155 131.42 488.875 130.055L488.872 130.058Z" fill="url(#paint6_linear_130_1139)"/>
<path d="M492.215 155.157C491.136 146.941 487.921 137.975 479.311 135.482C478.011 135.107 476.57 135.604 475.881 136.75C475.261 137.786 475.261 139.255 477.745 140.989C477.745 140.989 480.464 142.562 481.729 145.935C481.968 146.569 481.239 147.136 480.669 146.758C476.824 144.21 467.343 137.064 473.432 130.28C473.432 130.28 461.312 137.622 466.133 149.937C467.017 152.192 468.387 154.224 470.043 156.01C475.283 161.66 483.242 166.11 492.215 170.33V155.157Z" fill="url(#paint7_linear_130_1139)"/>
<path d="M493.787 143.119C493.53 142.211 494.032 141.187 495.07 140.547C497.923 138.795 500.999 137.509 504.505 136.646C506.942 136.046 509.531 136.479 511.599 137.884C513.487 139.167 515.317 140.925 517.149 142.674C507.727 139.706 501.696 142.881 497.774 144.381C496.044 145.042 494.171 144.457 493.79 143.119H493.787Z" fill="url(#paint8_linear_130_1139)"/>
<path d="M493.929 136.905C493.851 135.967 494.546 135.056 495.69 134.626C498.831 133.446 502.102 132.767 505.711 132.584C508.219 132.456 510.675 133.37 512.429 135.141C514.032 136.759 515.483 138.828 516.938 140.892C508.275 136.195 501.733 138.173 497.591 138.902C495.764 139.222 494.04 138.295 493.929 136.908V136.905Z" fill="url(#paint9_linear_130_1139)"/>
<path d="M493.929 136.905C493.851 135.967 494.546 135.056 495.69 134.626C498.831 133.446 502.102 132.767 505.711 132.584C508.219 132.456 510.675 133.37 512.429 135.141C514.032 136.759 515.483 138.828 516.938 140.892C508.275 136.195 501.733 138.173 497.591 138.902C495.764 139.222 494.04 138.295 493.929 136.908V136.905Z" fill="url(#paint10_linear_130_1139)"/>
<path d="M495.554 130.058C495.743 129.134 496.664 128.446 497.886 128.339C501.234 128.049 504.57 128.281 508.093 129.076C510.542 129.631 512.647 131.173 513.838 133.346C514.926 135.333 515.745 137.716 516.569 140.09C509.55 133.239 502.704 133.376 498.518 132.959C496.67 132.776 495.272 131.42 495.551 130.055L495.554 130.058Z" fill="url(#paint11_linear_130_1139)"/>
<path d="M492.215 155.157C493.294 146.941 496.509 137.975 505.119 135.482C506.418 135.107 507.86 135.604 508.548 136.75C509.168 137.786 509.168 139.255 506.685 140.989C506.685 140.989 503.965 142.562 502.7 145.935C502.462 146.569 503.19 147.136 503.761 146.758C507.605 144.21 517.087 137.064 510.997 130.28C510.997 130.28 523.117 137.622 518.296 149.937C517.412 152.192 516.042 154.224 514.386 156.01C509.146 161.66 501.187 166.11 492.215 170.33V155.157Z" fill="url(#paint12_linear_130_1139)"/>
<path d="M639.89 163.367V134.835H640.526L658.201 156.706V134.835H661.077V163.367H660.423L642.906 141.761V163.367H639.89Z" fill="#262626"/>
<path d="M665.786 134.835H669.082V163.367H665.786V134.835Z" fill="#262626"/>
<path d="M672.848 137.628V134.835H688.856V137.628H682.342V163.367H679.363V137.628H672.848Z" fill="#262626"/>
<path d="M692.623 134.835H708.631V137.628H695.571V147.68H708.631V150.474H695.571V160.574H708.631V163.367H692.623V134.835Z" fill="#262626"/>
<path d="M713.81 163.367V134.835H718.068C722.389 134.835 725.522 135.178 727.474 135.863C730.275 136.835 732.464 138.515 734.044 140.907C735.619 143.3 736.41 146.151 736.41 149.46C736.41 152.317 735.784 154.833 734.535 157.005C733.287 159.177 731.661 160.782 729.664 161.814C727.667 162.849 724.869 163.364 721.268 163.364H713.81V163.367ZM716.581 160.67H718.186C722.179 160.67 724.948 160.426 726.493 159.934C728.665 159.237 730.375 157.979 731.619 156.166C732.861 154.35 733.485 152.133 733.485 149.508C733.485 146.757 732.81 144.404 731.463 142.455C730.116 140.506 728.234 139.167 725.828 138.443C724.023 137.9 721.042 137.628 716.895 137.628H716.584V160.67H716.581Z" fill="#262626"/>
<path d="M556.083 163.367L543.833 134.835H538.23L525.95 163.367H531.691L541.065 142.401L544.659 150.519H541.065V155.816H547L550.341 163.367H556.083Z" fill="#262626"/>
<path d="M594.515 134.367C598.551 134.367 602.023 135.825 604.929 138.745C607.833 141.666 609.286 145.224 609.286 149.422C609.286 153.62 607.852 157.101 604.988 159.982C602.12 162.862 598.645 164.303 594.552 164.303C590.46 164.303 586.71 162.823 583.876 159.867C581.043 156.911 579.624 153.397 579.624 149.326C579.624 146.602 580.284 144.094 581.604 141.807C582.923 139.52 584.74 137.709 587.05 136.374C589.359 135.036 591.848 134.37 594.515 134.37V134.367ZM594.456 139.677C591.814 139.677 589.594 140.593 587.796 142.428C585.995 144.263 585.098 146.593 585.098 149.422C585.098 152.574 586.229 155.067 588.496 156.902C590.257 158.336 592.276 159.053 594.555 159.053C597.13 159.053 599.325 158.122 601.139 156.263C602.952 154.404 603.859 152.11 603.859 149.386C603.859 146.662 602.946 144.378 601.121 142.497C599.295 140.617 597.075 139.68 594.459 139.68L594.456 139.677Z" fill="#262626"/>
<path d="M563.849 163.367H558.449V150.644H567.117C568.863 150.644 570.526 149.846 571.583 148.507C572.61 146.858 572.588 144.715 571.531 142.865L571.426 142.731C570.369 141.356 568.682 140.535 566.914 140.535H558.437V135.302H566.914C570.38 135.302 573.687 136.91 575.756 139.602L576.128 140.113C578.287 143.708 578.278 148.023 576.101 151.376L575.987 151.537C573.918 154.253 570.602 155.876 567.114 155.876H563.845V163.367H563.849Z" fill="#262626"/>
<path d="M631.51 134.835V154.895C631.51 158.575 628.509 161.574 624.822 161.574C621.136 161.574 618.138 158.575 618.138 154.895V134.835H615.407V154.895C615.407 160.082 619.631 164.303 624.822 164.303C630.014 164.303 634.24 160.082 634.24 154.895V134.835H631.51Z" fill="#262626"/>
<line x1="802.027" y1="120.235" x2="769.689" y2="181.001" stroke="#D4D4D4"/>
<path d="M863.613 172.187L839.974 148.554C838.793 147.367 837.908 146.02 837.317 144.513C836.727 143.006 836.432 141.453 836.432 139.855C836.432 136.43 837.613 133.518 839.974 131.12C842.336 128.723 845.22 127.525 848.626 127.525C850.216 127.525 851.76 127.833 853.259 128.448C854.757 129.066 856.097 129.968 857.278 131.156L863.613 137.457L869.949 131.156C871.13 129.968 872.47 129.066 873.968 128.448C875.467 127.833 877.011 127.525 878.601 127.525C882.007 127.525 884.903 128.723 887.288 131.12C889.672 133.518 890.863 136.43 890.863 139.855C890.863 141.453 890.557 143.006 889.945 144.513C889.331 146.02 888.434 147.367 887.253 148.554L863.613 172.187ZM852.032 149.034L857.823 143.211L851.555 136.978C851.101 136.521 850.613 136.19 850.089 135.983C849.568 135.779 849.058 135.699 848.558 135.745C847.468 135.791 846.526 136.213 845.732 137.011C844.936 137.811 844.539 138.759 844.539 139.855C844.539 140.357 844.641 140.86 844.847 141.362C845.05 141.864 845.356 142.321 845.765 142.732L852.032 149.034ZM863.613 160.542L881.53 142.732C881.939 142.367 882.234 141.921 882.416 141.395C882.598 140.871 882.688 140.357 882.688 139.855C882.688 138.759 882.302 137.811 881.53 137.011C880.758 136.213 879.827 135.791 878.737 135.745C878.238 135.699 877.727 135.779 877.206 135.983C876.683 136.19 876.194 136.521 875.74 136.978L857.891 154.788L863.613 160.542Z" fill="url(#paint13_linear_130_1139)"/>
<path d="M1033.39 165.492C1031.27 165.492 1029.36 164.976 1027.66 163.946C1025.99 162.915 1024.67 161.508 1023.69 159.725C1022.71 157.942 1022.23 155.95 1022.23 153.749C1022.23 151.492 1022.71 149.486 1023.69 147.731C1024.67 145.948 1025.99 144.541 1027.66 143.511C1029.36 142.48 1031.27 141.964 1033.39 141.964C1035.25 141.964 1036.91 142.368 1038.36 143.176C1039.81 143.956 1040.95 145.015 1041.78 146.352L1041.16 147.313V133.356H1045.09V164.99H1041.28V160.185L1041.78 160.853C1041 162.33 1039.86 163.472 1038.36 164.28C1036.88 165.088 1035.22 165.492 1033.39 165.492ZM1033.72 161.731C1035.14 161.731 1036.41 161.383 1037.52 160.686C1038.64 159.99 1039.51 159.042 1040.15 157.844C1040.82 156.619 1041.16 155.253 1041.16 153.749C1041.16 152.217 1040.82 150.852 1040.15 149.654C1039.51 148.428 1038.64 147.467 1037.52 146.77C1036.41 146.074 1035.14 145.725 1033.72 145.725C1032.33 145.725 1031.06 146.088 1029.92 146.812C1028.8 147.508 1027.92 148.456 1027.28 149.654C1026.64 150.824 1026.32 152.189 1026.32 153.749C1026.32 155.253 1026.64 156.619 1027.28 157.844C1027.92 159.042 1028.8 159.99 1029.92 160.686C1031.03 161.383 1032.3 161.731 1033.72 161.731Z" fill="#262626"/>
<path d="M1007.84 165.492C1005.67 165.492 1003.73 164.976 1002.03 163.946C1000.33 162.915 998.996 161.508 998.02 159.725C997.045 157.914 996.558 155.894 996.558 153.665C996.558 151.409 997.031 149.403 997.979 147.648C998.954 145.893 1000.26 144.514 1001.91 143.511C1003.58 142.48 1005.45 141.964 1007.51 141.964C1009.18 141.964 1010.65 142.271 1011.94 142.884C1013.25 143.469 1014.35 144.277 1015.24 145.308C1016.16 146.31 1016.85 147.467 1017.33 148.776C1017.83 150.058 1018.08 151.395 1018.08 152.788C1018.08 153.094 1018.05 153.443 1018 153.833C1017.97 154.195 1017.93 154.543 1017.87 154.877H999.4V151.534H1015.61L1013.78 153.039C1014.03 151.59 1013.89 150.294 1013.36 149.152C1012.83 148.01 1012.05 147.104 1011.02 146.436C1009.99 145.767 1008.82 145.433 1007.51 145.433C1006.2 145.433 1005 145.767 1003.91 146.436C1002.83 147.104 1001.98 148.066 1001.36 149.319C1000.78 150.545 1000.54 152.008 1000.65 153.707C1000.54 155.351 1000.79 156.8 1001.41 158.053C1002.05 159.279 1002.94 160.24 1004.08 160.937C1005.25 161.605 1006.52 161.94 1007.88 161.94C1009.39 161.94 1010.65 161.591 1011.69 160.895C1012.72 160.198 1013.55 159.307 1014.19 158.22L1017.45 159.892C1017.01 160.923 1016.31 161.87 1015.36 162.734C1014.44 163.57 1013.34 164.238 1012.06 164.74C1010.81 165.241 1009.4 165.492 1007.84 165.492Z" fill="#262626"/>
<path d="M959.32 164.99V142.466H963.123V147.063L962.579 146.352C963.137 144.931 964.028 143.845 965.254 143.093C966.48 142.34 967.859 141.964 969.391 141.964C971.146 141.964 972.72 142.452 974.113 143.427C975.534 144.402 976.509 145.684 977.039 147.272L975.952 147.313C976.537 145.558 977.526 144.235 978.919 143.343C980.312 142.424 981.858 141.964 983.558 141.964C985.118 141.964 986.525 142.327 987.778 143.051C989.06 143.775 990.077 144.778 990.829 146.06C991.581 147.341 991.957 148.79 991.957 150.406V164.99H988.029V151.66C988.029 150.406 987.806 149.347 987.361 148.484C986.915 147.62 986.302 146.951 985.522 146.478C984.77 145.976 983.878 145.725 982.847 145.725C981.844 145.725 980.939 145.976 980.131 146.478C979.351 146.951 978.724 147.634 978.25 148.525C977.805 149.389 977.582 150.434 977.582 151.66V164.99H973.654V151.66C973.654 150.406 973.431 149.347 972.985 148.484C972.539 147.62 971.926 146.951 971.146 146.478C970.394 145.976 969.503 145.725 968.472 145.725C967.469 145.725 966.563 145.976 965.755 146.478C964.975 146.951 964.348 147.634 963.875 148.525C963.429 149.389 963.206 150.434 963.206 151.66V164.99H959.32Z" fill="#262626"/>
<path d="M941.318 165.492C938.922 165.492 936.791 164.99 934.924 163.987C933.086 162.984 931.637 161.605 930.578 159.85C929.52 158.095 928.99 156.103 928.99 153.874V133.857H934.674V153.582C934.674 154.863 934.952 156.02 935.509 157.05C936.094 158.081 936.888 158.889 937.891 159.474C938.894 160.031 940.037 160.31 941.318 160.31C942.628 160.31 943.77 160.031 944.745 159.474C945.748 158.889 946.528 158.081 947.085 157.05C947.67 156.02 947.963 154.863 947.963 153.582V133.857H953.646V153.874C953.646 156.103 953.117 158.095 952.058 159.85C950.999 161.605 949.537 162.984 947.67 163.987C945.831 164.99 943.714 165.492 941.318 165.492Z" fill="#262626"/>
<path d="M904.471 164.99V133.857H925.157V138.872H910.155V146.854H924.321V151.868H910.155V159.976H925.157V164.99H904.471Z" fill="#262626"/>
<line x1="1112.7" y1="120.25" x2="1077.62" y2="181.016" stroke="#D4D4D4"/>
<path d="M1171.02 123.256C1176.87 123.256 1181.61 127.995 1181.61 133.842L1181.61 139.318C1181.61 151.011 1172.13 160.49 1160.43 160.49L1160.43 133.842C1160.43 127.995 1165.17 123.256 1171.02 123.256Z" fill="url(#paint14_linear_130_1139)"/>
<mask id="mask0_130_1139" style="mask-type:alpha" maskUnits="userSpaceOnUse" x="1160" y="123" width="22" height="38">
<path d="M1171.02 123.256C1176.87 123.256 1181.61 127.995 1181.61 133.842L1181.61 141.873C1181.61 152.155 1173.27 160.49 1162.99 160.49L1160.43 160.49L1160.43 133.842C1160.43 127.995 1165.17 123.256 1171.02 123.256Z" fill="black"/>
</mask>
<g mask="url(#mask0_130_1139)">
<g filter="url(#filter2_f_130_1139)">
<path d="M1160.43 139.318L1175.03 139.318C1177.22 139.074 1181.24 137.492 1181.24 133.112" stroke="black" stroke-width="2.73603"/>
</g>
</g>
<path fill-rule="evenodd" clip-rule="evenodd" d="M1172.11 139.312C1172.24 139.315 1172.36 139.318 1172.48 139.318C1177.52 139.318 1181.61 136.375 1181.61 132.746L1181.61 141.873C1181.61 152.155 1173.27 160.491 1162.99 160.491L1154.96 160.491C1149.11 160.49 1144.37 155.75 1144.37 149.904C1144.37 144.057 1149.11 139.318 1154.96 139.318L1172.11 139.318L1172.11 139.312Z" fill="url(#paint15_linear_130_1139)"/>
<path d="M1170.29 176.552C1164.44 176.552 1159.7 171.813 1159.7 165.966L1159.7 160.49C1159.7 148.797 1169.18 139.318 1180.88 139.318L1180.88 165.966C1180.88 171.813 1176.14 176.552 1170.29 176.552Z" fill="url(#paint16_linear_130_1139)"/>
<mask id="mask1_130_1139" style="mask-type:alpha" maskUnits="userSpaceOnUse" x="1159" y="139" width="22" height="38">
<path d="M1170.29 176.552C1164.44 176.552 1159.7 171.813 1159.7 165.966L1159.7 157.935C1159.7 147.653 1168.04 139.318 1178.32 139.318L1180.88 139.318L1180.88 165.966C1180.88 171.813 1176.14 176.552 1170.29 176.552Z" fill="black"/>
</mask>
<g mask="url(#mask1_130_1139)">
<g filter="url(#filter3_f_130_1139)">
<path d="M1180.88 160.49L1166.27 160.49C1164.08 160.734 1160.07 162.315 1160.07 166.696" stroke="black" stroke-width="2.73603"/>
</g>
</g>
<path fill-rule="evenodd" clip-rule="evenodd" d="M1169.19 160.497C1169.07 160.494 1168.95 160.491 1168.83 160.491C1163.79 160.491 1159.7 163.432 1159.7 167.061V160.491C1159.7 148.797 1169.18 139.318 1180.88 139.318H1196.94C1196.94 151.011 1187.46 160.491 1175.76 160.491H1169.19V160.497Z" fill="url(#paint17_linear_130_1139)"/>
<path d="M1333.86 160.861C1331.66 160.861 1329.75 160.436 1328.11 159.585C1326.5 158.712 1325.25 157.492 1324.35 155.924C1323.46 154.357 1323.01 152.499 1323.01 150.349C1323.01 148.222 1323.44 146.375 1324.32 144.808C1325.21 143.241 1326.48 142.032 1328.11 141.181C1329.75 140.33 1331.67 139.905 1333.89 139.905C1336.08 139.905 1337.99 140.33 1339.6 141.181C1341.21 142.032 1342.45 143.241 1343.33 144.808C1344.2 146.375 1344.64 148.234 1344.64 150.383C1344.64 152.51 1344.2 154.368 1343.33 155.958C1342.45 157.525 1341.2 158.734 1339.56 159.585C1337.95 160.436 1336.05 160.861 1333.86 160.861ZM1333.86 156.025C1335.53 156.025 1336.82 155.521 1337.72 154.514C1338.61 153.484 1339.06 152.096 1339.06 150.349C1339.06 148.603 1338.61 147.237 1337.72 146.252C1336.82 145.245 1335.53 144.741 1333.86 144.741C1332.15 144.741 1330.84 145.245 1329.93 146.252C1329.03 147.237 1328.58 148.603 1328.58 150.349C1328.58 152.096 1329.03 153.484 1329.93 154.514C1330.84 155.521 1332.15 156.025 1333.86 156.025Z" fill="#262626"/>
<path d="M1299.62 168.518V145.816H1296.87V140.308H1302.51V143.599H1303.92C1304.64 142.435 1305.59 141.528 1306.78 140.879C1307.99 140.229 1309.44 139.905 1311.14 139.905C1313.23 139.905 1314.98 140.341 1316.42 141.215C1317.85 142.088 1318.94 143.308 1319.67 144.875C1320.41 146.442 1320.78 148.278 1320.78 150.383C1320.78 152.488 1320.42 154.335 1319.71 155.924C1318.99 157.492 1317.95 158.712 1316.58 159.585C1315.22 160.436 1313.56 160.861 1311.61 160.861C1310.14 160.861 1308.87 160.593 1307.82 160.055C1306.77 159.496 1305.94 158.712 1305.33 157.704H1305.2V168.518H1299.62ZM1310.1 156.025C1311.8 156.025 1313.08 155.521 1313.93 154.514C1314.78 153.506 1315.21 152.129 1315.21 150.383C1315.21 148.637 1314.78 147.26 1313.93 146.252C1313.08 145.245 1311.8 144.741 1310.1 144.741C1308.6 144.741 1307.4 145.166 1306.51 146.017C1305.64 146.845 1305.2 147.999 1305.2 149.476V151.29C1305.2 152.767 1305.64 153.932 1306.51 154.783C1307.4 155.611 1308.6 156.025 1310.1 156.025Z" fill="#262626"/>
<path d="M1281.51 160.828C1279.14 160.828 1277.28 160.257 1275.94 159.115C1274.6 157.951 1273.92 156.428 1273.92 154.547C1273.92 152.555 1274.62 151.021 1276.01 149.946C1277.39 148.872 1279.39 148.334 1281.98 148.334H1287.76V147.562C1287.76 145.39 1286.46 144.304 1283.87 144.304C1281.6 144.304 1280.24 145.088 1279.77 146.655H1274.23C1274.67 144.439 1275.72 142.759 1277.35 141.618C1278.98 140.476 1281.16 139.905 1283.87 139.905C1286.87 139.905 1289.15 140.576 1290.72 141.92C1292.31 143.263 1293.1 145.222 1293.1 147.797V154.95H1295.72V160.458H1290.08V157.167H1288.67C1287.97 158.331 1287.04 159.238 1285.88 159.887C1284.72 160.514 1283.26 160.828 1281.51 160.828ZM1282.35 156.596C1283.41 156.596 1284.34 156.406 1285.14 156.025C1285.95 155.645 1286.59 155.141 1287.06 154.514C1287.53 153.865 1287.76 153.137 1287.76 152.331V152.029H1282.25C1280.24 152.029 1279.23 152.779 1279.23 154.279C1279.23 155.018 1279.51 155.589 1280.07 155.992C1280.63 156.395 1281.39 156.596 1282.35 156.596Z" fill="#262626"/>
<path d="M1266.1 160.458V132.247H1269.86V160.458H1266.1Z" fill="#262626"/>
<path d="M1252.24 160.861C1250.14 160.861 1248.31 160.436 1246.77 159.585C1245.22 158.712 1244.02 157.48 1243.17 155.891C1242.35 154.301 1241.93 152.443 1241.93 150.316C1241.93 148.189 1242.35 146.353 1243.17 144.808C1244.02 143.241 1245.21 142.032 1246.73 141.181C1248.26 140.33 1250.04 139.905 1252.07 139.905C1254.02 139.905 1255.7 140.297 1257.11 141.08C1258.54 141.864 1259.65 142.972 1260.44 144.405C1261.22 145.838 1261.61 147.54 1261.61 149.51V151.021H1245.56C1245.67 153.126 1246.31 154.771 1247.47 155.958C1248.66 157.122 1250.24 157.704 1252.21 157.704C1253.57 157.704 1254.73 157.424 1255.67 156.865C1256.61 156.283 1257.26 155.432 1257.61 154.312H1261.44C1260.95 156.395 1259.89 158.007 1258.25 159.148C1256.64 160.29 1254.64 160.861 1252.24 160.861ZM1245.69 148.267H1257.98C1257.81 146.61 1257.19 145.323 1256.14 144.405C1255.11 143.487 1253.74 143.028 1252.04 143.028C1250.36 143.028 1248.96 143.487 1247.84 144.405C1246.72 145.323 1246.01 146.61 1245.69 148.267Z" fill="#262626"/>
<path d="M1214.44 160.458L1208.06 140.308H1211.95L1216.62 155.958H1216.79L1222.33 140.308H1226.22L1231.77 155.958H1231.93L1236.6 140.308H1240.43L1234.08 160.458H1229.88L1224.31 144.808H1224.18L1218.63 160.458H1214.44Z" fill="#262626"/>
</g>
<defs>
<filter id="filter0_f_130_1139" x="-523.461" y="-83.4397" width="779.84" height="779.84" filterUnits="userSpaceOnUse" color-interpolation-filters="sRGB">
<feFlood flood-opacity="0" result="BackgroundImageFix"/>
<feBlend mode="normal" in="SourceGraphic" in2="BackgroundImageFix" result="shape"/>
<feGaussianBlur stdDeviation="80.2305" result="effect1_foregroundBlur_130_1139"/>
</filter>
<filter id="filter1_f_130_1139" x="-295.606" y="46.5337" width="938.697" height="779.84" filterUnits="userSpaceOnUse" color-interpolation-filters="sRGB">
<feFlood flood-opacity="0" result="BackgroundImageFix"/>
<feBlend mode="normal" in="SourceGraphic" in2="BackgroundImageFix" result="shape"/>
<feGaussianBlur stdDeviation="80.2305" result="effect1_foregroundBlur_130_1139"/>
</filter>
<filter id="filter2_f_130_1139" x="1146.75" y="119.432" width="49.5359" height="34.9341" filterUnits="userSpaceOnUse" color-interpolation-filters="sRGB">
<feFlood flood-opacity="0" result="BackgroundImageFix"/>
<feBlend mode="normal" in="SourceGraphic" in2="BackgroundImageFix" result="shape"/>
<feGaussianBlur stdDeviation="6.84009" result="effect1_foregroundBlur_130_1139"/>
</filter>
<filter id="filter3_f_130_1139" x="1145.02" y="145.442" width="49.5359" height="34.9341" filterUnits="userSpaceOnUse" color-interpolation-filters="sRGB">
<feFlood flood-opacity="0" result="BackgroundImageFix"/>
<feBlend mode="normal" in="SourceGraphic" in2="BackgroundImageFix" result="shape"/>
<feGaussianBlur stdDeviation="6.84009" result="effect1_foregroundBlur_130_1139"/>
</filter>
<linearGradient id="paint0_linear_130_1139" x1="0" y1="150" x2="1810" y2="150" gradientUnits="userSpaceOnUse">
<stop stop-color="#FAFAFA"/>
<stop offset="1" stop-color="#FAFAFA"/>
</linearGradient>
<linearGradient id="paint1_linear_130_1139" x1="-113.483" y1="77.0213" x2="-45.2872" y2="328.143" gradientUnits="userSpaceOnUse">
<stop stop-color="#FFB37E"/>
<stop offset="1" stop-color="#E93864"/>
</linearGradient>
<linearGradient id="paint2_linear_130_1139" x1="-45.5032" y1="267.168" x2="463.189" y2="267.168" gradientUnits="userSpaceOnUse">
<stop stop-color="#E96D40"/>
<stop offset="1" stop-color="#FF9347"/>
</linearGradient>
<linearGradient id="paint3_linear_130_1139" x1="474.679" y1="143.308" x2="500.048" y2="133.912" gradientUnits="userSpaceOnUse">
<stop offset="0.19" stop-color="#9F0737"/>
<stop offset="0.2" stop-color="#A40639"/>
<stop offset="0.29" stop-color="#BC0441"/>
<stop offset="0.39" stop-color="#CE0248"/>
<stop offset="0.51" stop-color="#DB004D"/>
<stop offset="0.67" stop-color="#E20050"/>
<stop offset="1" stop-color="#E50051"/>
</linearGradient>
<linearGradient id="paint4_linear_130_1139" x1="478.458" y1="134.077" x2="479.237" y2="141.141" gradientUnits="userSpaceOnUse">
<stop stop-color="#E72B6E"/>
<stop offset="0.08" stop-color="#E83677"/>
<stop offset="0.28" stop-color="#EA4D88"/>
<stop offset="0.47" stop-color="#EB5A93"/>
<stop offset="0.64" stop-color="#EC5F97"/>
</linearGradient>
<linearGradient id="paint5_linear_130_1139" x1="476.616" y1="136.729" x2="498.568" y2="136.729" gradientUnits="userSpaceOnUse">
<stop offset="0.19" stop-color="#9F0737"/>
<stop offset="0.2" stop-color="#A40639"/>
<stop offset="0.29" stop-color="#BC0441"/>
<stop offset="0.39" stop-color="#CE0248"/>
<stop offset="0.51" stop-color="#DB004D"/>
<stop offset="0.67" stop-color="#E20050"/>
<stop offset="1" stop-color="#E50051"/>
</linearGradient>
<linearGradient id="paint6_linear_130_1139" x1="469.023" y1="134.157" x2="517.443" y2="134.157" gradientUnits="userSpaceOnUse">
<stop offset="0.19" stop-color="#9F0737"/>
<stop offset="0.2" stop-color="#A40639"/>
<stop offset="0.29" stop-color="#BC0441"/>
<stop offset="0.39" stop-color="#CE0248"/>
<stop offset="0.51" stop-color="#DB004D"/>
<stop offset="0.67" stop-color="#E20050"/>
<stop offset="1" stop-color="#E50051"/>
</linearGradient>
<linearGradient id="paint7_linear_130_1139" x1="455.489" y1="125.672" x2="499.404" y2="170.35" gradientUnits="userSpaceOnUse">
<stop stop-color="#ED6C77"/>
<stop offset="0.25" stop-color="#EA4A6B"/>
<stop offset="0.83" stop-color="#E50051"/>
</linearGradient>
<linearGradient id="paint8_linear_130_1139" x1="500.84" y1="140.52" x2="529.514" y2="140.52" gradientUnits="userSpaceOnUse">
<stop stop-color="#F39200"/>
<stop offset="0.16" stop-color="#ED6C07"/>
<stop offset="0.33" stop-color="#E94D0D"/>
<stop offset="0.47" stop-color="#E63910"/>
<stop offset="0.56" stop-color="#E63312"/>
</linearGradient>
<linearGradient id="paint9_linear_130_1139" x1="505.968" y1="134.077" x2="505.189" y2="141.141" gradientUnits="userSpaceOnUse">
<stop stop-color="#E72B6E"/>
<stop offset="0.08" stop-color="#E83677"/>
<stop offset="0.28" stop-color="#EA4D88"/>
<stop offset="0.47" stop-color="#EB5A93"/>
<stop offset="0.64" stop-color="#EC5F97"/>
</linearGradient>
<linearGradient id="paint10_linear_130_1139" x1="498.79" y1="136.729" x2="520.739" y2="136.729" gradientUnits="userSpaceOnUse">
<stop stop-color="#F39200"/>
<stop offset="0.16" stop-color="#ED6C07"/>
<stop offset="0.33" stop-color="#E94D0D"/>
<stop offset="0.47" stop-color="#E63910"/>
<stop offset="0.56" stop-color="#E63312"/>
</linearGradient>
<linearGradient id="paint11_linear_130_1139" x1="496.686" y1="134.157" x2="545.106" y2="134.157" gradientUnits="userSpaceOnUse">
<stop stop-color="#F39200"/>
<stop offset="0.16" stop-color="#ED6C07"/>
<stop offset="0.33" stop-color="#E94D0D"/>
<stop offset="0.47" stop-color="#E63910"/>
<stop offset="0.56" stop-color="#E63312"/>
</linearGradient>
<linearGradient id="paint12_linear_130_1139" x1="505.82" y1="117.636" x2="505.82" y2="174.953" gradientUnits="userSpaceOnUse">
<stop stop-color="#F39200"/>
<stop offset="0.19" stop-color="#F28D00"/>
<stop offset="0.4" stop-color="#F08003"/>
<stop offset="0.63" stop-color="#ED6907"/>
<stop offset="0.85" stop-color="#E94A0D"/>
<stop offset="1" stop-color="#E63312"/>
</linearGradient>
<linearGradient id="paint13_linear_130_1139" x1="863.648" y1="127.525" x2="863.648" y2="172.187" gradientUnits="userSpaceOnUse">
<stop stop-color="#8CB450"/>
<stop offset="1" stop-color="#5A8C14"/>
</linearGradient>
<linearGradient id="paint14_linear_130_1139" x1="1171.02" y1="160.49" x2="1171.02" y2="123.256" gradientUnits="userSpaceOnUse">
<stop offset="0.65" stop-color="#A0281E"/>
<stop offset="1" stop-color="#AF3728"/>
</linearGradient>
<linearGradient id="paint15_linear_130_1139" x1="1144.37" y1="160.491" x2="1195.72" y2="143.159" gradientUnits="userSpaceOnUse">
<stop stop-color="#A51419"/>
<stop offset="1" stop-color="#BE0A19"/>
</linearGradient>
<linearGradient id="paint16_linear_130_1139" x1="1170.29" y1="139.318" x2="1170.29" y2="176.552" gradientUnits="userSpaceOnUse">
<stop offset="0.65" stop-color="#55823C"/>
<stop offset="1" stop-color="#789B3C"/>
</linearGradient>
<linearGradient id="paint17_linear_130_1139" x1="1196.94" y1="139.318" x2="1145.59" y2="156.651" gradientUnits="userSpaceOnUse">
<stop stop-color="#698C3C"/>
<stop offset="1" stop-color="#82A53C"/>
</linearGradient>
<clipPath id="clip0_130_1139">
<rect width="1810" height="300" fill="white"/>
</clipPath>
</defs>
</svg>
