<svg width="1810" height="300" viewBox="0 0 1810 300" fill="none" xmlns="http://www.w3.org/2000/svg">
<g clip-path="url(#clip0_111_993)">
<rect width="1810" height="300" fill="url(#paint0_linear_111_993)"/>
<path d="M477.636 143.119C477.894 142.211 477.391 141.187 476.353 140.547C473.501 138.795 470.426 137.51 466.921 136.648C464.484 136.047 461.896 136.48 459.829 137.884C457.941 139.167 456.112 140.925 454.28 142.674C463.7 139.706 469.729 142.881 473.65 144.38C475.38 145.041 477.252 144.456 477.633 143.119H477.636Z" fill="url(#paint1_linear_111_993)"/>
<path d="M477.49 136.907C477.568 135.968 476.873 135.057 475.73 134.628C472.59 133.449 469.319 132.769 465.711 132.586C463.204 132.458 460.749 133.372 458.994 135.142C457.392 136.76 455.941 138.829 454.487 140.892C463.148 136.197 469.688 138.174 473.829 138.902C475.655 139.222 477.379 138.296 477.49 136.91V136.907Z" fill="url(#paint2_linear_111_993)"/>
<path d="M477.49 136.907C477.568 135.968 476.873 135.057 475.73 134.628C472.59 133.449 469.319 132.769 465.711 132.586C463.204 132.458 460.749 133.372 458.994 135.142C457.392 136.76 455.941 138.829 454.487 140.892C463.148 136.197 469.688 138.174 473.829 138.902C475.655 139.222 477.379 138.296 477.49 136.91V136.907Z" fill="url(#paint3_linear_111_993)"/>
<path d="M475.866 130.061C475.677 129.137 474.756 128.449 473.535 128.342C470.187 128.053 466.852 128.284 463.331 129.08C460.882 129.634 458.777 131.176 457.587 133.348C456.499 135.334 455.681 137.717 454.856 140.09C461.874 133.241 468.718 133.378 472.903 132.961C474.75 132.778 476.148 131.422 475.869 130.058L475.866 130.061Z" fill="url(#paint4_linear_111_993)"/>
<path d="M479.208 155.153C478.129 146.939 474.915 137.976 466.307 135.484C465.008 135.109 463.567 135.606 462.879 136.751C462.259 137.787 462.259 139.256 464.741 140.989C464.741 140.989 467.46 142.561 468.725 145.934C468.963 146.568 468.235 147.134 467.664 146.757C463.821 144.21 454.342 137.065 460.43 130.283C460.43 130.283 448.313 137.623 453.133 149.934C454.017 152.189 455.387 154.221 457.042 156.006C462.28 161.655 470.237 166.103 479.208 170.323V155.153Z" fill="url(#paint5_linear_111_993)"/>
<path d="M480.779 143.119C480.522 142.211 481.024 141.187 482.063 140.547C484.914 138.795 487.989 137.51 491.495 136.648C493.931 136.047 496.519 136.48 498.587 137.884C500.475 139.167 502.303 140.925 504.135 142.674C494.715 139.706 488.687 142.881 484.765 144.38C483.036 145.041 481.164 144.456 480.782 143.119H480.779Z" fill="url(#paint6_linear_111_993)"/>
<path d="M480.921 136.907C480.844 135.968 481.538 135.057 482.682 134.628C485.822 133.449 489.092 132.769 492.7 132.586C495.208 132.458 497.663 133.372 499.417 135.142C501.02 136.76 502.47 138.829 503.924 140.892C495.263 136.197 488.723 138.174 484.582 138.902C482.756 139.222 481.033 138.296 480.921 136.91V136.907Z" fill="url(#paint7_linear_111_993)"/>
<path d="M480.921 136.907C480.844 135.968 481.538 135.057 482.682 134.628C485.822 133.449 489.092 132.769 492.7 132.586C495.208 132.458 497.663 133.372 499.417 135.142C501.02 136.76 502.47 138.829 503.924 140.892C495.263 136.197 488.723 138.174 484.582 138.902C482.756 139.222 481.033 138.296 480.921 136.91V136.907Z" fill="url(#paint8_linear_111_993)"/>
<path d="M482.546 130.061C482.735 129.137 483.656 128.449 484.877 128.342C488.225 128.053 491.56 128.284 495.081 129.08C497.53 129.634 499.635 131.176 500.825 133.348C501.913 135.334 502.731 137.717 503.556 140.09C496.538 133.241 489.694 133.378 485.509 132.961C483.662 132.778 482.264 131.422 482.543 130.058L482.546 130.061Z" fill="url(#paint9_linear_111_993)"/>
<path d="M479.207 155.153C480.286 146.939 483.5 137.976 492.108 135.484C493.407 135.109 494.848 135.606 495.537 136.751C496.156 137.787 496.156 139.256 493.674 140.989C493.674 140.989 490.955 142.561 489.691 145.934C489.452 146.568 490.18 147.134 490.751 146.757C494.594 144.21 504.073 137.065 497.985 130.283C497.985 130.283 510.102 137.623 505.282 149.934C504.399 152.189 503.028 154.221 501.373 156.006C496.135 161.655 488.178 166.103 479.207 170.323V155.153Z" fill="url(#paint10_linear_111_993)"/>
<path d="M626.844 163.362V134.836H627.48L645.15 156.702V134.836H648.026V163.362H647.371L629.859 141.761V163.362H626.844Z" fill="#262626"/>
<path d="M652.733 134.836H656.028V163.362H652.733V134.836Z" fill="#262626"/>
<path d="M659.793 137.629V134.836H675.797V137.629H669.284V163.362H666.307V137.629H659.793Z" fill="#262626"/>
<path d="M679.563 134.836H695.567V137.629H682.51V147.678H695.567V150.471H682.51V160.569H695.567V163.362H679.563V134.836Z" fill="#262626"/>
<path d="M700.745 163.362V134.836H705.001C709.321 134.836 712.454 135.18 714.405 135.865C717.205 136.836 719.394 138.516 720.973 140.907C722.548 143.299 723.338 146.149 723.338 149.458C723.338 152.314 722.713 154.829 721.464 157.001C720.216 159.172 718.591 160.777 716.594 161.808C714.598 162.843 711.801 163.359 708.2 163.359H700.745V163.362ZM703.514 160.665H705.119C709.111 160.665 711.88 160.421 713.424 159.929C715.596 159.233 717.305 157.975 718.548 156.162C719.791 154.347 720.414 152.13 720.414 149.506C720.414 146.755 719.739 144.403 718.393 142.455C717.046 140.506 715.165 139.167 712.759 138.443C710.954 137.9 707.975 137.629 703.828 137.629H703.517V160.665H703.514Z" fill="#262626"/>
<path d="M543.059 163.362L530.812 134.836H525.211L512.934 163.362H518.673L528.045 142.4L531.638 150.516H528.045V155.813H533.978L537.319 163.362H543.059Z" fill="#262626"/>
<path d="M581.481 134.369C585.516 134.369 588.987 135.827 591.892 138.746C594.796 141.665 596.248 145.223 596.248 149.42C596.248 153.617 594.814 157.096 591.951 159.977C589.084 162.857 585.609 164.297 581.518 164.297C577.427 164.297 573.678 162.818 570.845 159.862C568.012 156.907 566.594 153.394 566.594 149.324C566.594 146.6 567.254 144.094 568.573 141.807C569.892 139.52 571.708 137.71 574.018 136.375C576.326 135.037 578.814 134.372 581.481 134.372V134.369ZM581.422 139.677C578.781 139.677 576.561 140.593 574.763 142.428C572.963 144.262 572.066 146.591 572.066 149.42C572.066 152.571 573.198 155.063 575.464 156.898C577.224 158.332 579.242 159.049 581.521 159.049C584.095 159.049 586.29 158.118 588.103 156.259C589.916 154.4 590.822 152.107 590.822 149.384C590.822 146.66 589.91 144.377 588.085 142.497C586.26 140.617 584.04 139.68 581.425 139.68L581.422 139.677Z" fill="#262626"/>
<path d="M550.823 163.362H545.424V150.641H554.09C555.836 150.641 557.498 149.843 558.555 148.505C559.582 146.856 559.56 144.714 558.503 142.865L558.398 142.73C557.341 141.356 555.654 140.535 553.887 140.535H545.412V135.304H553.887C557.353 135.304 560.658 136.911 562.727 139.603L563.099 140.114C565.257 143.707 565.248 148.021 563.072 151.373L562.958 151.534C560.889 154.25 557.575 155.872 554.087 155.872H550.819V163.362H550.823Z" fill="#262626"/>
<path d="M618.466 134.836V154.891C618.466 158.571 615.466 161.569 611.78 161.569C608.095 161.569 605.098 158.571 605.098 154.891V134.836H602.367V154.891C602.367 160.077 606.59 164.297 611.78 164.297C616.97 164.297 621.196 160.077 621.196 154.891V134.836H618.466Z" fill="#262626"/>
<line x1="791.675" y1="120.25" x2="756.601" y2="181" stroke="#D4D4D4"/>
<path d="M851.689 174.769L827.029 150.116C825.797 148.878 824.873 147.472 824.258 145.9C823.642 144.328 823.334 142.708 823.334 141.041C823.334 137.468 824.566 134.431 827.029 131.929C829.493 129.429 832.501 128.179 836.054 128.179C837.713 128.179 839.323 128.5 840.887 129.142C842.45 129.786 843.848 130.728 845.08 131.966L851.689 138.54L858.298 131.966C859.53 130.728 860.927 129.786 862.491 129.142C864.054 128.5 865.665 128.179 867.323 128.179C870.876 128.179 873.897 129.429 876.385 131.929C878.872 134.431 880.115 137.468 880.115 141.041C880.115 142.708 879.795 144.328 879.157 145.9C878.516 147.472 877.58 148.878 876.348 150.116L851.689 174.769ZM839.608 150.616L845.648 144.543L839.11 138.04C838.636 137.564 838.127 137.218 837.581 137.002C837.037 136.789 836.504 136.706 835.983 136.754C834.846 136.801 833.864 137.242 833.036 138.074C832.205 138.909 831.79 139.898 831.79 141.041C831.79 141.565 831.898 142.089 832.112 142.613C832.324 143.137 832.643 143.614 833.07 144.042L839.608 150.616ZM851.689 162.621L870.379 144.042C870.805 143.661 871.113 143.196 871.303 142.647C871.492 142.101 871.587 141.565 871.587 141.041C871.587 139.898 871.184 138.909 870.379 138.074C869.573 137.242 868.602 136.801 867.465 136.754C866.944 136.706 866.411 136.789 865.868 137.002C865.322 137.218 864.812 137.564 864.338 138.04L845.719 156.619L851.689 162.621Z" fill="url(#paint11_linear_111_993)"/>
<path d="M1028.79 167.81C1026.58 167.81 1024.59 167.272 1022.82 166.197C1021.07 165.122 1019.69 163.654 1018.67 161.794C1017.66 159.934 1017.15 157.856 1017.15 155.56C1017.15 153.206 1017.66 151.114 1018.67 149.283C1019.69 147.423 1021.07 145.955 1022.82 144.88C1024.59 143.805 1026.58 143.267 1028.79 143.267C1030.74 143.267 1032.46 143.689 1033.98 144.531C1035.49 145.345 1036.68 146.449 1037.55 147.844L1036.9 148.847V134.287H1040.99V167.287H1037.03V162.274L1037.55 162.971C1036.74 164.512 1035.54 165.703 1033.98 166.546C1032.44 167.389 1030.71 167.81 1028.79 167.81ZM1029.14 163.887C1030.62 163.887 1031.94 163.523 1033.1 162.797C1034.27 162.07 1035.18 161.082 1035.85 159.833C1036.55 158.554 1036.9 157.13 1036.9 155.56C1036.9 153.962 1036.55 152.538 1035.85 151.288C1035.18 150.01 1034.27 149.007 1033.1 148.28C1031.94 147.554 1030.62 147.191 1029.14 147.191C1027.68 147.191 1026.36 147.568 1025.17 148.324C1024.01 149.051 1023.09 150.039 1022.42 151.288C1021.75 152.509 1021.42 153.933 1021.42 155.56C1021.42 157.13 1021.75 158.554 1022.42 159.833C1023.09 161.082 1024.01 162.07 1025.17 162.797C1026.33 163.523 1027.65 163.887 1029.14 163.887Z" fill="#262626"/>
<path d="M1002.14 167.81C999.875 167.81 997.855 167.272 996.082 166.197C994.309 165.122 992.914 163.654 991.897 161.794C990.88 159.905 990.371 157.798 990.371 155.473C990.371 153.119 990.865 151.027 991.853 149.196C992.871 147.365 994.236 145.926 995.951 144.88C997.695 143.805 999.642 143.267 1001.79 143.267C1003.54 143.267 1005.08 143.587 1006.41 144.226C1007.78 144.837 1008.93 145.679 1009.86 146.755C1010.82 147.801 1011.54 149.007 1012.04 150.373C1012.56 151.71 1012.82 153.105 1012.82 154.558C1012.82 154.877 1012.79 155.241 1012.73 155.648C1012.71 156.025 1012.66 156.389 1012.6 156.737H993.336V153.25H1010.25L1008.33 154.819C1008.59 153.308 1008.45 151.957 1007.9 150.765C1007.34 149.574 1006.53 148.629 1005.45 147.932C1004.38 147.234 1003.16 146.885 1001.79 146.885C1000.43 146.885 999.177 147.234 998.044 147.932C996.91 148.629 996.024 149.632 995.384 150.94C994.774 152.218 994.527 153.744 994.643 155.517C994.527 157.231 994.789 158.743 995.428 160.051C996.096 161.329 997.026 162.332 998.218 163.058C999.439 163.756 1000.76 164.105 1002.18 164.105C1003.75 164.105 1005.08 163.741 1006.15 163.015C1007.23 162.288 1008.1 161.358 1008.77 160.225L1012.17 161.969C1011.7 163.044 1010.98 164.032 1009.99 164.933C1009.03 165.805 1007.88 166.502 1006.54 167.025C1005.24 167.549 1003.77 167.81 1002.14 167.81Z" fill="#262626"/>
<path d="M951.526 167.287V143.79H955.493V148.586L954.926 147.844C955.507 146.362 956.437 145.229 957.716 144.444C958.995 143.659 960.433 143.267 962.032 143.267C963.863 143.267 965.505 143.776 966.958 144.793C968.44 145.81 969.457 147.147 970.009 148.803L968.876 148.847C969.486 147.016 970.518 145.636 971.971 144.706C973.424 143.747 975.037 143.267 976.81 143.267C978.437 143.267 979.905 143.645 981.213 144.401C982.55 145.156 983.61 146.202 984.395 147.539C985.18 148.876 985.572 150.387 985.572 152.073V167.287H981.474V153.381C981.474 152.073 981.242 150.969 980.777 150.068C980.312 149.167 979.673 148.469 978.859 147.975C978.074 147.452 977.144 147.191 976.069 147.191C975.023 147.191 974.078 147.452 973.235 147.975C972.422 148.469 971.768 149.181 971.274 150.111C970.809 151.012 970.576 152.102 970.576 153.381V167.287H966.478V153.381C966.478 152.073 966.246 150.969 965.781 150.068C965.316 149.167 964.676 148.469 963.863 147.975C963.078 147.452 962.148 147.191 961.073 147.191C960.027 147.191 959.082 147.452 958.239 147.975C957.425 148.469 956.772 149.181 956.278 150.111C955.813 151.012 955.58 152.102 955.58 153.381V167.287H951.526Z" fill="#262626"/>
<path d="M932.747 167.81C930.248 167.81 928.025 167.287 926.077 166.241C924.159 165.195 922.648 163.756 921.544 161.925C920.439 160.094 919.887 158.016 919.887 155.691V134.81H925.816V155.386C925.816 156.723 926.106 157.929 926.688 159.004C927.298 160.08 928.126 160.922 929.173 161.533C930.219 162.114 931.41 162.405 932.747 162.405C934.113 162.405 935.305 162.114 936.322 161.533C937.368 160.922 938.182 160.08 938.763 159.004C939.373 157.929 939.678 156.723 939.678 155.386V134.81H945.607V155.691C945.607 158.016 945.055 160.094 943.951 161.925C942.846 163.756 941.321 165.195 939.373 166.241C937.455 167.287 935.247 167.81 932.747 167.81Z" fill="#262626"/>
<path d="M894.31 167.287V134.81H915.889V140.041H900.239V148.368H915.017V153.599H900.239V162.056H915.889V167.287H894.31Z" fill="#262626"/>
<line x1="1108.59" y1="120.25" x2="1073.52" y2="181" stroke="#D4D4D4"/>
<path d="M1169.16 120.717C1175.51 120.717 1180.65 125.859 1180.65 132.202L1180.65 138.143C1180.65 150.829 1170.36 161.113 1157.68 161.113V161.113L1157.68 132.202C1157.68 125.859 1162.82 120.717 1169.16 120.717V120.717Z" fill="url(#paint12_linear_111_993)"/>
<mask id="mask0_111_993" style="mask-type:alpha" maskUnits="userSpaceOnUse" x="1157" y="120" width="24" height="42">
<path d="M1169.16 120.717C1175.51 120.717 1180.65 125.859 1180.65 132.202L1180.65 140.915C1180.65 152.07 1171.6 161.113 1160.45 161.113L1157.68 161.113L1157.68 132.202C1157.68 125.859 1162.82 120.717 1169.16 120.717V120.717Z" fill="black"/>
</mask>
<g mask="url(#mask0_111_993)">
<g filter="url(#filter0_f_111_993)">
<path d="M1157.68 138.143L1173.52 138.143C1175.9 137.879 1180.25 136.163 1180.25 131.41" stroke="black" stroke-width="2.73531"/>
</g>
</g>
<path d="M1170.35 138.136C1170.48 138.14 1170.61 138.143 1170.75 138.143C1176.22 138.143 1180.65 134.951 1180.65 131.014L1180.65 140.915C1180.65 152.069 1171.61 161.113 1160.45 161.113L1151.74 161.113C1145.39 161.113 1140.25 155.97 1140.25 149.628C1140.25 143.285 1145.39 138.143 1151.74 138.143L1170.35 138.143L1170.35 138.136Z" fill="url(#paint13_linear_111_993)"/>
<path d="M1168.37 178.538C1162.03 178.538 1156.89 173.396 1156.89 167.053L1156.89 161.113C1156.89 148.427 1167.17 138.143 1179.86 138.143V138.143L1179.86 167.053C1179.86 173.396 1174.71 178.538 1168.37 178.538V178.538Z" fill="url(#paint14_linear_111_993)"/>
<mask id="mask1_111_993" style="mask-type:alpha" maskUnits="userSpaceOnUse" x="1156" y="138" width="24" height="41">
<path d="M1168.37 178.538C1162.03 178.538 1156.89 173.396 1156.89 167.053L1156.89 158.34C1156.89 147.186 1165.93 138.143 1177.08 138.143L1179.86 138.143L1179.86 167.053C1179.86 173.396 1174.71 178.538 1168.37 178.538V178.538Z" fill="black"/>
</mask>
<g mask="url(#mask1_111_993)">
<g filter="url(#filter1_f_111_993)">
<path d="M1179.86 161.113L1164.01 161.113C1161.64 161.377 1157.28 163.093 1157.28 167.845" stroke="black" stroke-width="2.73531"/>
</g>
</g>
<path d="M1167.18 161.12C1167.05 161.116 1166.92 161.113 1166.79 161.113C1161.32 161.113 1156.89 164.305 1156.89 168.242V161.113C1156.89 148.427 1167.17 138.143 1179.86 138.143H1197.28C1197.28 150.829 1187 161.113 1174.31 161.113H1167.18V161.12Z" fill="url(#paint15_linear_111_993)"/>
<path d="M1345.82 161.743C1343.44 161.743 1341.36 161.281 1339.59 160.358C1337.84 159.411 1336.48 158.087 1335.51 156.387C1334.54 154.686 1334.05 152.67 1334.05 150.338C1334.05 148.031 1334.53 146.027 1335.47 144.327C1336.45 142.626 1337.82 141.315 1339.59 140.392C1341.36 139.469 1343.45 139.007 1345.86 139.007C1348.24 139.007 1350.3 139.469 1352.05 140.392C1353.8 141.315 1355.15 142.626 1356.1 144.327C1357.04 146.027 1357.52 148.043 1357.52 150.375C1357.52 152.682 1357.04 154.699 1356.1 156.423C1355.15 158.123 1353.79 159.435 1352.02 160.358C1350.27 161.281 1348.2 161.743 1345.82 161.743ZM1345.82 156.496C1347.64 156.496 1349.04 155.949 1350.01 154.856C1350.98 153.739 1351.47 152.233 1351.47 150.338C1351.47 148.444 1350.98 146.962 1350.01 145.893C1349.04 144.8 1347.64 144.254 1345.82 144.254C1343.98 144.254 1342.55 144.8 1341.56 145.893C1340.59 146.962 1340.1 148.444 1340.1 150.338C1340.1 152.233 1340.59 153.739 1341.56 154.856C1342.55 155.949 1343.98 156.496 1345.82 156.496Z" fill="#262626"/>
<path d="M1308.68 170.05V145.42H1305.7V139.444H1311.82V143.015H1313.35C1314.13 141.752 1315.16 140.768 1316.45 140.064C1317.76 139.359 1319.34 139.007 1321.18 139.007C1323.44 139.007 1325.35 139.481 1326.9 140.428C1328.46 141.375 1329.64 142.699 1330.44 144.4C1331.24 146.1 1331.64 148.092 1331.64 150.375C1331.64 152.658 1331.25 154.662 1330.47 156.387C1329.7 158.087 1328.57 159.411 1327.08 160.358C1325.6 161.281 1323.81 161.743 1321.69 161.743C1320.09 161.743 1318.72 161.451 1317.58 160.868C1316.43 160.261 1315.53 159.411 1314.88 158.318H1314.73V170.05H1308.68ZM1320.05 156.496C1321.9 156.496 1323.28 155.949 1324.21 154.856C1325.13 153.763 1325.59 152.27 1325.59 150.375C1325.59 148.48 1325.13 146.986 1324.21 145.893C1323.28 144.8 1321.9 144.254 1320.05 144.254C1318.43 144.254 1317.13 144.715 1316.15 145.638C1315.21 146.537 1314.73 147.788 1314.73 149.391V151.359C1314.73 152.962 1315.21 154.225 1316.15 155.148C1317.13 156.047 1318.43 156.496 1320.05 156.496Z" fill="#262626"/>
<path d="M1289.04 161.706C1286.46 161.706 1284.45 161.087 1282.99 159.848C1281.53 158.585 1280.8 156.933 1280.8 154.893C1280.8 152.731 1281.56 151.067 1283.06 149.901C1284.57 148.735 1286.73 148.152 1289.55 148.152H1295.81V147.314C1295.81 144.958 1294.41 143.78 1291.59 143.78C1289.13 143.78 1287.65 144.63 1287.14 146.331H1281.13C1281.62 143.926 1282.75 142.104 1284.52 140.865C1286.29 139.627 1288.65 139.007 1291.59 139.007C1294.84 139.007 1297.32 139.736 1299.02 141.193C1300.75 142.651 1301.61 144.776 1301.61 147.569V155.33H1304.45V161.305H1298.33V157.735H1296.8C1296.05 158.998 1295.04 159.982 1293.77 160.686C1292.51 161.366 1290.93 161.706 1289.04 161.706ZM1289.95 157.115C1291.09 157.115 1292.1 156.909 1292.97 156.496C1293.85 156.083 1294.54 155.537 1295.05 154.856C1295.56 154.152 1295.81 153.363 1295.81 152.488V152.16H1289.84C1287.65 152.16 1286.56 152.974 1286.56 154.601C1286.56 155.403 1286.86 156.022 1287.47 156.46C1288.08 156.897 1288.9 157.115 1289.95 157.115Z" fill="#262626"/>
<path d="M1272.32 161.305V130.7H1276.4V161.305H1272.32Z" fill="#262626"/>
<path d="M1257.28 161.743C1255 161.743 1253.02 161.281 1251.34 160.358C1249.67 159.411 1248.37 158.075 1247.44 156.35C1246.54 154.626 1246.09 152.61 1246.09 150.302C1246.09 147.994 1246.54 146.003 1247.44 144.327C1248.37 142.626 1249.65 141.315 1251.3 140.392C1252.96 139.469 1254.89 139.007 1257.1 139.007C1259.21 139.007 1261.03 139.432 1262.56 140.282C1264.12 141.133 1265.32 142.335 1266.17 143.889C1267.02 145.444 1267.45 147.29 1267.45 149.428V151.067H1250.03C1250.15 153.35 1250.84 155.136 1252.11 156.423C1253.39 157.686 1255.11 158.318 1257.24 158.318C1258.73 158.318 1259.98 158.014 1261 157.407C1262.02 156.775 1262.72 155.852 1263.11 154.638H1267.26C1266.73 156.897 1265.58 158.646 1263.8 159.884C1262.05 161.123 1259.88 161.743 1257.28 161.743ZM1250.18 148.079H1263.51C1263.32 146.282 1262.65 144.885 1261.51 143.889C1260.39 142.894 1258.91 142.396 1257.06 142.396C1255.24 142.396 1253.72 142.894 1252.51 143.889C1251.29 144.885 1250.52 146.282 1250.18 148.079Z" fill="#262626"/>
<path d="M1216.27 161.305L1209.34 139.444H1213.57L1218.63 156.423H1218.82L1224.83 139.444H1229.05L1235.07 156.423H1235.25L1240.31 139.444H1244.47L1237.58 161.305H1233.03L1226.98 144.327H1226.83L1220.82 161.305H1216.27Z" fill="#262626"/>
<g opacity="0.2" filter="url(#filter2_f_111_993)">
<circle cx="-133.541" cy="306.481" r="229.459" fill="url(#paint16_linear_111_993)"/>
</g>
<g opacity="0.2" filter="url(#filter3_f_111_993)">
<ellipse cx="173.742" cy="436.454" rx="308.887" ry="229.459" fill="url(#paint17_linear_111_993)"/>
</g>
</g>
<defs>
<filter id="filter0_f_111_993" x="1144" y="117.734" width="51.2948" height="35.4533" filterUnits="userSpaceOnUse" color-interpolation-filters="sRGB">
<feFlood flood-opacity="0" result="BackgroundImageFix"/>
<feBlend mode="normal" in="SourceGraphic" in2="BackgroundImageFix" result="shape"/>
<feGaussianBlur stdDeviation="6.83828" result="effect1_foregroundBlur_111_993"/>
</filter>
<filter id="filter1_f_111_993" x="1142.24" y="146.068" width="51.2948" height="35.4533" filterUnits="userSpaceOnUse" color-interpolation-filters="sRGB">
<feFlood flood-opacity="0" result="BackgroundImageFix"/>
<feBlend mode="normal" in="SourceGraphic" in2="BackgroundImageFix" result="shape"/>
<feGaussianBlur stdDeviation="6.83828" result="effect1_foregroundBlur_111_993"/>
</filter>
<filter id="filter2_f_111_993" x="-523.461" y="-83.4398" width="779.84" height="779.84" filterUnits="userSpaceOnUse" color-interpolation-filters="sRGB">
<feFlood flood-opacity="0" result="BackgroundImageFix"/>
<feBlend mode="normal" in="SourceGraphic" in2="BackgroundImageFix" result="shape"/>
<feGaussianBlur stdDeviation="80.2305" result="effect1_foregroundBlur_111_993"/>
</filter>
<filter id="filter3_f_111_993" x="-295.606" y="46.5337" width="938.697" height="779.84" filterUnits="userSpaceOnUse" color-interpolation-filters="sRGB">
<feFlood flood-opacity="0" result="BackgroundImageFix"/>
<feBlend mode="normal" in="SourceGraphic" in2="BackgroundImageFix" result="shape"/>
<feGaussianBlur stdDeviation="80.2305" result="effect1_foregroundBlur_111_993"/>
</filter>
<linearGradient id="paint0_linear_111_993" x1="0" y1="150" x2="1810" y2="150" gradientUnits="userSpaceOnUse">
<stop stop-color="#FAFAFA"/>
<stop offset="1" stop-color="#FAFAFA"/>
</linearGradient>
<linearGradient id="paint1_linear_111_993" x1="461.676" y1="143.308" x2="487.039" y2="133.914" gradientUnits="userSpaceOnUse">
<stop offset="0.19" stop-color="#9F0737"/>
<stop offset="0.2" stop-color="#A40639"/>
<stop offset="0.29" stop-color="#BC0441"/>
<stop offset="0.39" stop-color="#CE0248"/>
<stop offset="0.51" stop-color="#DB004D"/>
<stop offset="0.67" stop-color="#E20050"/>
<stop offset="1" stop-color="#E50051"/>
</linearGradient>
<linearGradient id="paint2_linear_111_993" x1="465.454" y1="134.079" x2="466.233" y2="141.141" gradientUnits="userSpaceOnUse">
<stop stop-color="#E72B6E"/>
<stop offset="0.08" stop-color="#E83677"/>
<stop offset="0.28" stop-color="#EA4D88"/>
<stop offset="0.47" stop-color="#EB5A93"/>
<stop offset="0.64" stop-color="#EC5F97"/>
</linearGradient>
<linearGradient id="paint3_linear_111_993" x1="463.613" y1="136.73" x2="485.559" y2="136.73" gradientUnits="userSpaceOnUse">
<stop offset="0.19" stop-color="#9F0737"/>
<stop offset="0.2" stop-color="#A40639"/>
<stop offset="0.29" stop-color="#BC0441"/>
<stop offset="0.39" stop-color="#CE0248"/>
<stop offset="0.51" stop-color="#DB004D"/>
<stop offset="0.67" stop-color="#E20050"/>
<stop offset="1" stop-color="#E50051"/>
</linearGradient>
<linearGradient id="paint4_linear_111_993" x1="456.022" y1="134.158" x2="504.43" y2="134.158" gradientUnits="userSpaceOnUse">
<stop offset="0.19" stop-color="#9F0737"/>
<stop offset="0.2" stop-color="#A40639"/>
<stop offset="0.29" stop-color="#BC0441"/>
<stop offset="0.39" stop-color="#CE0248"/>
<stop offset="0.51" stop-color="#DB004D"/>
<stop offset="0.67" stop-color="#E20050"/>
<stop offset="1" stop-color="#E50051"/>
</linearGradient>
<linearGradient id="paint5_linear_111_993" x1="442.492" y1="125.676" x2="486.394" y2="170.342" gradientUnits="userSpaceOnUse">
<stop stop-color="#ED6C77"/>
<stop offset="0.25" stop-color="#EA4A6B"/>
<stop offset="0.83" stop-color="#E50051"/>
</linearGradient>
<linearGradient id="paint6_linear_111_993" x1="487.831" y1="140.52" x2="516.497" y2="140.52" gradientUnits="userSpaceOnUse">
<stop stop-color="#F39200"/>
<stop offset="0.16" stop-color="#ED6C07"/>
<stop offset="0.33" stop-color="#E94D0D"/>
<stop offset="0.47" stop-color="#E63910"/>
<stop offset="0.56" stop-color="#E63312"/>
</linearGradient>
<linearGradient id="paint7_linear_111_993" x1="492.957" y1="134.079" x2="492.178" y2="141.141" gradientUnits="userSpaceOnUse">
<stop stop-color="#E72B6E"/>
<stop offset="0.08" stop-color="#E83677"/>
<stop offset="0.28" stop-color="#EA4D88"/>
<stop offset="0.47" stop-color="#EB5A93"/>
<stop offset="0.64" stop-color="#EC5F97"/>
</linearGradient>
<linearGradient id="paint8_linear_111_993" x1="485.781" y1="136.73" x2="507.724" y2="136.73" gradientUnits="userSpaceOnUse">
<stop stop-color="#F39200"/>
<stop offset="0.16" stop-color="#ED6C07"/>
<stop offset="0.33" stop-color="#E94D0D"/>
<stop offset="0.47" stop-color="#E63910"/>
<stop offset="0.56" stop-color="#E63312"/>
</linearGradient>
<linearGradient id="paint9_linear_111_993" x1="483.677" y1="134.158" x2="532.085" y2="134.158" gradientUnits="userSpaceOnUse">
<stop stop-color="#F39200"/>
<stop offset="0.16" stop-color="#ED6C07"/>
<stop offset="0.33" stop-color="#E94D0D"/>
<stop offset="0.47" stop-color="#E63910"/>
<stop offset="0.56" stop-color="#E63312"/>
</linearGradient>
<linearGradient id="paint10_linear_111_993" x1="492.809" y1="117.642" x2="492.809" y2="174.945" gradientUnits="userSpaceOnUse">
<stop stop-color="#F39200"/>
<stop offset="0.19" stop-color="#F28D00"/>
<stop offset="0.4" stop-color="#F08003"/>
<stop offset="0.63" stop-color="#ED6907"/>
<stop offset="0.85" stop-color="#E94A0D"/>
<stop offset="1" stop-color="#E63312"/>
</linearGradient>
<linearGradient id="paint11_linear_111_993" x1="851.724" y1="128.179" x2="851.724" y2="174.769" gradientUnits="userSpaceOnUse">
<stop stop-color="#8CB450"/>
<stop offset="1" stop-color="#5A8C14"/>
</linearGradient>
<linearGradient id="paint12_linear_111_993" x1="1169.16" y1="161.113" x2="1169.16" y2="120.717" gradientUnits="userSpaceOnUse">
<stop offset="0.65" stop-color="#A0281E"/>
<stop offset="1" stop-color="#AF3728"/>
</linearGradient>
<linearGradient id="paint13_linear_111_993" x1="1140.25" y1="161.113" x2="1195.96" y2="142.309" gradientUnits="userSpaceOnUse">
<stop stop-color="#A51419"/>
<stop offset="1" stop-color="#BE0A19"/>
</linearGradient>
<linearGradient id="paint14_linear_111_993" x1="1168.37" y1="138.143" x2="1168.37" y2="178.538" gradientUnits="userSpaceOnUse">
<stop offset="0.65" stop-color="#55823C"/>
<stop offset="1" stop-color="#789B3C"/>
</linearGradient>
<linearGradient id="paint15_linear_111_993" x1="1197.28" y1="138.143" x2="1141.57" y2="156.947" gradientUnits="userSpaceOnUse">
<stop stop-color="#698C3C"/>
<stop offset="1" stop-color="#82A53C"/>
</linearGradient>
<linearGradient id="paint16_linear_111_993" x1="-113.483" y1="77.0213" x2="-45.2872" y2="328.143" gradientUnits="userSpaceOnUse">
<stop stop-color="#FFB37E"/>
<stop offset="1" stop-color="#E93864"/>
</linearGradient>
<linearGradient id="paint17_linear_111_993" x1="-45.5032" y1="267.168" x2="463.189" y2="267.168" gradientUnits="userSpaceOnUse">
<stop stop-color="#E96D40"/>
<stop offset="1" stop-color="#FF9347"/>
</linearGradient>
<clipPath id="clip0_111_993">
<rect width="1810" height="300" fill="white"/>
</clipPath>
</defs>
</svg>
