<svg width="230" height="50" viewBox="0 0 230 50" fill="none" xmlns="http://www.w3.org/2000/svg">
<path d="M29.9625 50L3.90488 24.0721C2.60325 22.7694 1.62703 21.2914 0.97622 19.638C0.325406 17.9847 0 16.2812 0 14.5276C0 10.7699 1.30163 7.57542 3.90488 4.94405C6.50813 2.31468 9.68711 1 13.4418 1C15.194 1 16.8961 1.33769 18.5482 2.01307C20.2002 2.69045 21.6771 3.68047 22.9787 4.98313L29.9625 11.8972L36.9462 4.98313C38.2478 3.68047 39.7247 2.69045 41.3767 2.01307C43.0288 1.33769 44.7309 1 46.4831 1C50.2378 1 53.4298 2.31468 56.0591 4.94405C58.6864 7.57542 60 10.7699 60 14.5276C60 16.2812 59.6626 17.9847 58.9877 19.638C58.3109 21.2914 57.3216 22.7694 56.02 24.0721L29.9625 50ZM17.1965 24.5982L23.5795 18.2101L16.6708 11.3712C16.1702 10.8701 15.6315 10.5064 15.0548 10.2799C14.4801 10.0555 13.9174 9.9683 13.3667 10.0184C12.1652 10.0685 11.1269 10.5315 10.2518 11.4072C9.37472 12.285 8.93617 13.3252 8.93617 14.5276C8.93617 15.0787 9.04931 15.6299 9.27559 16.181C9.49987 16.7321 9.8373 17.2331 10.2879 17.6841L17.1965 24.5982ZM29.9625 37.2239L49.7121 17.6841C50.1627 17.2832 50.4881 16.7942 50.6884 16.2171C50.8886 15.6419 50.9887 15.0787 50.9887 14.5276C50.9887 13.3252 50.5632 12.285 49.7121 11.4072C48.8611 10.5315 47.8348 10.0685 46.6333 10.0184C46.0826 9.9683 45.5199 10.0555 44.9452 10.2799C44.3685 10.5064 43.8298 10.8701 43.3292 11.3712L23.6546 30.911L29.9625 37.2239Z" fill="url(#paint0_linear_53_7521)"/>
<path d="M217.102 44.4236C214.768 44.4236 212.664 43.8555 210.791 42.7193C208.949 41.583 207.49 40.0322 206.415 38.0667C205.34 36.1013 204.803 33.9056 204.803 31.4795C204.803 28.992 205.34 26.7809 206.415 24.8462C207.49 22.8808 208.949 21.3299 210.791 20.1937C212.664 19.0574 214.768 18.4893 217.102 18.4893C219.16 18.4893 220.987 18.9346 222.584 19.8252C224.181 20.685 225.44 21.852 226.361 23.3261L225.67 24.3856V9H230V43.8709H225.808V38.5735L226.361 39.3105C225.501 40.9381 224.242 42.1972 222.584 43.0878C220.956 43.9784 219.129 44.4236 217.102 44.4236ZM217.47 40.2778C219.037 40.2778 220.434 39.894 221.662 39.1262C222.891 38.3585 223.858 37.3144 224.564 35.9938C225.301 34.6426 225.67 33.1378 225.67 31.4795C225.67 29.7905 225.301 28.2857 224.564 26.9652C223.858 25.614 222.891 24.5545 221.662 23.7867C220.434 23.019 219.037 22.6351 217.47 22.6351C215.935 22.6351 214.538 23.0343 213.279 23.8328C212.05 24.6005 211.083 25.6447 210.377 26.9652C209.67 28.255 209.317 29.7598 209.317 31.4795C209.317 33.1378 209.67 34.6426 210.377 35.9938C211.083 37.3144 212.05 38.3585 213.279 39.1262C214.507 39.894 215.904 40.2778 217.47 40.2778Z" fill="#F5F5F5"/>
<path d="M188.945 44.4236C186.549 44.4236 184.415 43.8555 182.542 42.7192C180.668 41.583 179.194 40.0321 178.12 38.0667C177.045 36.0706 176.507 33.8441 176.507 31.3874C176.507 28.8999 177.029 26.6888 178.074 24.7541C179.148 22.8194 180.592 21.2992 182.404 20.1937C184.246 19.0574 186.304 18.4893 188.576 18.4893C190.419 18.4893 192.046 18.8271 193.459 19.5027C194.902 20.1476 196.115 21.0382 197.098 22.1745C198.112 23.28 198.879 24.5545 199.401 25.9978C199.954 27.4105 200.231 28.8845 200.231 30.42C200.231 30.7578 200.2 31.1417 200.138 31.5716C200.108 31.9708 200.062 32.3547 200 32.7232H179.64V29.0381H197.513L195.486 30.6964C195.762 29.0995 195.609 27.6715 195.025 26.4124C194.442 25.1533 193.582 24.1552 192.446 23.4182C191.309 22.6812 190.02 22.3126 188.576 22.3126C187.133 22.3126 185.812 22.6812 184.615 23.4182C183.417 24.1552 182.48 25.2147 181.805 26.5967C181.16 27.9479 180.899 29.5601 181.022 31.4334C180.899 33.2453 181.175 34.8422 181.851 36.2241C182.557 37.5754 183.54 38.6349 184.799 39.4026C186.089 40.1396 187.486 40.5082 188.991 40.5082C190.649 40.5082 192.046 40.1243 193.183 39.3565C194.319 38.5888 195.24 37.6061 195.947 36.4084L199.54 38.251C199.048 39.3872 198.281 40.4314 197.236 41.3834C196.223 42.3047 195.01 43.0417 193.597 43.5945C192.215 44.1472 190.665 44.4236 188.945 44.4236Z" fill="#F5F5F5"/>
<path d="M135.46 43.8709V19.0421H139.652V24.1092L139.053 23.3261C139.667 21.7599 140.65 20.5622 142.001 19.733C143.352 18.9039 144.872 18.4893 146.561 18.4893C148.496 18.4893 150.231 19.0267 151.767 20.1015C153.333 21.1764 154.408 22.589 154.991 24.3395L153.793 24.3856C154.438 22.4508 155.529 20.9921 157.064 20.0094C158.599 18.996 160.304 18.4893 162.177 18.4893C163.897 18.4893 165.448 18.8885 166.83 19.687C168.242 20.4854 169.363 21.591 170.192 23.0036C171.022 24.4163 171.436 26.0132 171.436 27.7943V43.8709H167.106V29.1763C167.106 27.7943 166.86 26.6274 166.369 25.6754C165.878 24.7234 165.202 23.9863 164.342 23.4643C163.513 22.9115 162.53 22.6351 161.394 22.6351C160.289 22.6351 159.29 22.9115 158.4 23.4643C157.54 23.9863 156.849 24.7387 156.327 25.7214C155.836 26.6734 155.59 27.825 155.59 29.1763V43.8709H151.26V29.1763C151.26 27.7943 151.014 26.6274 150.523 25.6754C150.031 24.7234 149.356 23.9863 148.496 23.4643C147.667 22.9115 146.684 22.6351 145.548 22.6351C144.442 22.6351 143.444 22.9115 142.554 23.4643C141.694 23.9863 141.003 24.7387 140.481 25.7214C139.989 26.6734 139.744 27.825 139.744 29.1763V43.8709H135.46Z" fill="#F5F5F5"/>
<path d="M115.616 44.4236C112.975 44.4236 110.626 43.8709 108.569 42.7653C106.542 41.6598 104.945 40.1396 103.778 38.2049C102.611 36.2702 102.027 34.0745 102.027 31.6177V9.55276H108.292V31.2952C108.292 32.7079 108.599 33.9823 109.213 35.1186C109.858 36.2549 110.734 37.1454 111.839 37.7903C112.945 38.4045 114.204 38.7116 115.616 38.7116C117.06 38.7116 118.319 38.4045 119.394 37.7903C120.499 37.1454 121.359 36.2549 121.973 35.1186C122.618 33.9823 122.941 32.7079 122.941 31.2952V9.55276H129.205V31.6177C129.205 34.0745 128.622 36.2702 127.455 38.2049C126.288 40.1396 124.676 41.6598 122.618 42.7653C120.591 43.8709 118.257 44.4236 115.616 44.4236Z" fill="#F5F5F5"/>
<path d="M75 43.8709V9.55276H97.802V15.0805H81.2648V23.8788H96.8807V29.4066H81.2648V38.3431H97.802V43.8709H75Z" fill="#F5F5F5"/>
<defs>
<linearGradient id="paint0_linear_53_7521" x1="30" y1="1" x2="30" y2="50" gradientUnits="userSpaceOnUse">
<stop stop-color="#8CB450"/>
<stop offset="1" stop-color="#5A8C14"/>
</linearGradient>
</defs>
</svg>
