<svg width="230" height="50" viewBox="0 0 230 50" fill="none" xmlns="http://www.w3.org/2000/svg">
<path d="M29.9625 50L3.90488 24.0721C2.60325 22.7694 1.62703 21.2914 0.97622 19.638C0.325406 17.9847 0 16.2812 0 14.5276C0 10.7699 1.30163 7.57542 3.90488 4.94405C6.50813 2.31468 9.68711 1 13.4418 1C15.194 1 16.8961 1.33769 18.5482 2.01307C20.2002 2.69045 21.6771 3.68047 22.9787 4.98313L29.9625 11.8972L36.9462 4.98313C38.2478 3.68047 39.7247 2.69045 41.3767 2.01307C43.0288 1.33769 44.7309 1 46.4831 1C50.2378 1 53.4298 2.31468 56.0591 4.94405C58.6864 7.57542 60 10.7699 60 14.5276C60 16.2812 59.6626 17.9847 58.9877 19.638C58.3109 21.2914 57.3216 22.7694 56.02 24.0721L29.9625 50ZM17.1965 24.5982L23.5795 18.2101L16.6708 11.3712C16.1702 10.8701 15.6315 10.5064 15.0548 10.2799C14.4801 10.0555 13.9174 9.9683 13.3667 10.0184C12.1652 10.0685 11.1269 10.5315 10.2518 11.4072C9.37472 12.285 8.93617 13.3252 8.93617 14.5276C8.93617 15.0787 9.04931 15.6299 9.27559 16.181C9.49987 16.7321 9.8373 17.2331 10.2879 17.6841L17.1965 24.5982ZM29.9625 37.2239L49.7121 17.6841C50.1627 17.2832 50.4881 16.7942 50.6884 16.2171C50.8886 15.6419 50.9887 15.0787 50.9887 14.5276C50.9887 13.3252 50.5632 12.285 49.7121 11.4072C48.8611 10.5315 47.8348 10.0685 46.6333 10.0184C46.0826 9.9683 45.5199 10.0555 44.9452 10.2799C44.3685 10.5064 43.8298 10.8701 43.3292 11.3712L23.6546 30.911L29.9625 37.2239Z" fill="url(#paint0_linear_53_7506)"/>
<path d="M217.102 43.4236C214.768 43.4236 212.664 42.8555 210.791 41.7193C208.949 40.583 207.49 39.0322 206.415 37.0667C205.34 35.1013 204.803 32.9056 204.803 30.4795C204.803 27.992 205.34 25.7809 206.415 23.8462C207.49 21.8808 208.949 20.3299 210.791 19.1937C212.664 18.0574 214.768 17.4893 217.102 17.4893C219.16 17.4893 220.987 17.9346 222.584 18.8252C224.181 19.685 225.44 20.852 226.361 22.3261L225.67 23.3856V8H230V42.8709H225.808V37.5735L226.361 38.3105C225.501 39.9381 224.242 41.1972 222.584 42.0878C220.956 42.9784 219.129 43.4236 217.102 43.4236ZM217.47 39.2778C219.037 39.2778 220.434 38.894 221.662 38.1262C222.891 37.3585 223.858 36.3144 224.564 34.9938C225.301 33.6426 225.67 32.1378 225.67 30.4795C225.67 28.7905 225.301 27.2857 224.564 25.9652C223.858 24.614 222.891 23.5545 221.662 22.7867C220.434 22.019 219.037 21.6351 217.47 21.6351C215.935 21.6351 214.538 22.0343 213.279 22.8328C212.05 23.6005 211.083 24.6447 210.377 25.9652C209.67 27.255 209.317 28.7598 209.317 30.4795C209.317 32.1378 209.67 33.6426 210.377 34.9938C211.083 36.3144 212.05 37.3585 213.279 38.1262C214.507 38.894 215.904 39.2778 217.47 39.2778Z" fill="#262626"/>
<path d="M188.945 43.4236C186.549 43.4236 184.415 42.8555 182.542 41.7192C180.668 40.583 179.194 39.0321 178.12 37.0667C177.045 35.0706 176.507 32.8441 176.507 30.3874C176.507 27.8999 177.029 25.6888 178.074 23.7541C179.148 21.8194 180.592 20.2992 182.404 19.1937C184.246 18.0574 186.304 17.4893 188.576 17.4893C190.419 17.4893 192.046 17.8271 193.459 18.5027C194.902 19.1476 196.115 20.0382 197.098 21.1745C198.112 22.28 198.879 23.5545 199.401 24.9978C199.954 26.4105 200.231 27.8845 200.231 29.42C200.231 29.7578 200.2 30.1417 200.138 30.5716C200.108 30.9708 200.062 31.3547 200 31.7232H179.64V28.0381H197.513L195.486 29.6964C195.762 28.0995 195.609 26.6715 195.025 25.4124C194.442 24.1533 193.582 23.1552 192.446 22.4182C191.309 21.6812 190.02 21.3126 188.576 21.3126C187.133 21.3126 185.812 21.6812 184.615 22.4182C183.417 23.1552 182.48 24.2147 181.805 25.5967C181.16 26.9479 180.899 28.5601 181.022 30.4334C180.899 32.2453 181.175 33.8422 181.851 35.2241C182.557 36.5754 183.54 37.6349 184.799 38.4026C186.089 39.1396 187.486 39.5082 188.991 39.5082C190.649 39.5082 192.046 39.1243 193.183 38.3565C194.319 37.5888 195.24 36.6061 195.947 35.4084L199.54 37.251C199.048 38.3872 198.281 39.4314 197.236 40.3834C196.223 41.3047 195.01 42.0417 193.597 42.5945C192.215 43.1472 190.665 43.4236 188.945 43.4236Z" fill="#262626"/>
<path d="M135.46 42.8709V18.0421H139.652V23.1092L139.053 22.3261C139.667 20.7599 140.65 19.5622 142.001 18.733C143.352 17.9039 144.872 17.4893 146.561 17.4893C148.496 17.4893 150.231 18.0267 151.767 19.1015C153.333 20.1764 154.408 21.589 154.991 23.3395L153.793 23.3856C154.438 21.4508 155.529 19.9921 157.064 19.0094C158.599 17.996 160.304 17.4893 162.177 17.4893C163.897 17.4893 165.448 17.8885 166.83 18.687C168.242 19.4854 169.363 20.591 170.192 22.0036C171.022 23.4163 171.436 25.0132 171.436 26.7943V42.8709H167.106V28.1763C167.106 26.7943 166.86 25.6274 166.369 24.6754C165.878 23.7234 165.202 22.9863 164.342 22.4643C163.513 21.9115 162.53 21.6351 161.394 21.6351C160.289 21.6351 159.29 21.9115 158.4 22.4643C157.54 22.9863 156.849 23.7387 156.327 24.7214C155.836 25.6734 155.59 26.825 155.59 28.1763V42.8709H151.26V28.1763C151.26 26.7943 151.014 25.6274 150.523 24.6754C150.031 23.7234 149.356 22.9863 148.496 22.4643C147.667 21.9115 146.684 21.6351 145.548 21.6351C144.442 21.6351 143.444 21.9115 142.554 22.4643C141.694 22.9863 141.003 23.7387 140.481 24.7214C139.989 25.6734 139.744 26.825 139.744 28.1763V42.8709H135.46Z" fill="#262626"/>
<path d="M115.616 43.4237C112.975 43.4237 110.626 42.8709 108.569 41.7653C106.542 40.6598 104.945 39.1397 103.778 37.205C102.611 35.2702 102.027 33.0745 102.027 30.6177V8.5528H108.292V30.2953C108.292 31.7079 108.599 32.9824 109.213 34.1186C109.858 35.2549 110.734 36.1455 111.839 36.7904C112.945 37.4046 114.204 37.7117 115.616 37.7117C117.06 37.7117 118.319 37.4046 119.394 36.7904C120.499 36.1455 121.359 35.2549 121.973 34.1186C122.618 32.9824 122.941 31.7079 122.941 30.2953V8.5528H129.205V30.6177C129.205 33.0745 128.622 35.2702 127.455 37.205C126.288 39.1397 124.676 40.6598 122.618 41.7653C120.591 42.8709 118.257 43.4237 115.616 43.4237Z" fill="#262626"/>
<path d="M75 42.8709V8.5528H97.802V14.0805H81.2648V22.8789H96.8807V28.4066H81.2648V37.3431H97.802V42.8709H75Z" fill="#262626"/>
<defs>
<linearGradient id="paint0_linear_53_7506" x1="30" y1="1" x2="30" y2="50" gradientUnits="userSpaceOnUse">
<stop stop-color="#8CB450"/>
<stop offset="1" stop-color="#5A8C14"/>
</linearGradient>
</defs>
</svg>
