<svg width="60" height="49" viewBox="0 0 60 49" fill="none" xmlns="http://www.w3.org/2000/svg">
<path d="M29.9625 49L3.90488 23.0721C2.60325 21.7694 1.62703 20.2914 0.97622 18.638C0.325406 16.9847 0 15.2812 0 13.5276C0 9.76994 1.30163 6.57542 3.90488 3.94405C6.50813 1.31468 9.68711 0 13.4418 0C15.194 0 16.8961 0.337689 18.5482 1.01307C20.2002 1.69045 21.6771 2.68047 22.9787 3.98313L29.9625 10.8972L36.9462 3.98313C38.2478 2.68047 39.7247 1.69045 41.3767 1.01307C43.0288 0.337689 44.7309 0 46.4831 0C50.2378 0 53.4298 1.31468 56.0591 3.94405C58.6864 6.57542 60 9.76994 60 13.5276C60 15.2812 59.6626 16.9847 58.9877 18.638C58.3109 20.2914 57.3216 21.7694 56.02 23.0721L29.9625 49ZM17.1965 23.5982L23.5795 17.2101L16.6708 10.3712C16.1702 9.87014 15.6315 9.5064 15.0548 9.27994C14.4801 9.05548 13.9174 8.9683 13.3667 9.01841C12.1652 9.06851 11.1269 9.53145 10.2518 10.4072C9.37472 11.285 8.93617 12.3252 8.93617 13.5276C8.93617 14.0787 9.04931 14.6299 9.27559 15.181C9.49987 15.7321 9.8373 16.2331 10.2879 16.6841L17.1965 23.5982ZM29.9625 36.2239L49.7121 16.6841C50.1627 16.2832 50.4881 15.7942 50.6884 15.2171C50.8886 14.6419 50.9887 14.0787 50.9887 13.5276C50.9887 12.3252 50.5632 11.285 49.7121 10.4072C48.8611 9.53145 47.8348 9.06851 46.6333 9.01841C46.0826 8.9683 45.5199 9.05548 44.9452 9.27994C44.3685 9.5064 43.8298 9.87014 43.3292 10.3712L23.6546 29.911L29.9625 36.2239Z" fill="url(#paint0_linear_53_7342)"/>
<defs>
<linearGradient id="paint0_linear_53_7342" x1="30" y1="0" x2="30" y2="49" gradientUnits="userSpaceOnUse">
<stop stop-color="#F0F0F0"/>
<stop offset="1" stop-color="#DCDCDC"/>
</linearGradient>
</defs>
</svg>
