<svg width="229" height="61" viewBox="0 0 229 61" fill="none" xmlns="http://www.w3.org/2000/svg">
<path d="M30.4167 -6.21834e-07C37.0901 -2.78405e-07 42.5 5.40989 42.5 12.0833L42.5 18.4498C42.5 31.7967 31.6802 42.6164 18.3333 42.6164L18.3333 12.0833C18.3333 5.40989 23.7432 -9.65263e-07 30.4167 -6.21834e-07Z" fill="url(#paint0_linear_50_4870)"/>
<mask id="mask0_50_4870" style="mask-type:alpha" maskUnits="userSpaceOnUse" x="18" y="0" width="25" height="43">
<path d="M30.4167 -6.21834e-07C37.0901 -2.78405e-07 42.5 5.40989 42.5 12.0833L42.5 21.3082C42.5 33.0764 32.96 42.6164 21.1918 42.6164L18.3333 42.6164L18.3333 12.0833C18.3333 5.40989 23.7432 -9.65263e-07 30.4167 -6.21834e-07Z" fill="black"/>
</mask>
<g mask="url(#mask0_50_4870)">
<g filter="url(#filter0_f_50_4870)">
<path d="M18.3335 18.3836L35.0002 18.3836C37.5002 18.105 42.0835 16.2945 42.0835 11.2808" stroke="black" stroke-width="1.80556"/>
</g>
</g>
<path d="M31.6665 18.3763C31.8048 18.3802 31.9438 18.3831 32.0835 18.3831C37.8365 18.3831 42.5005 15.0161 42.5005 10.8626L42.5005 21.3665C42.5004 33.1024 32.9863 42.6163 21.2505 42.6165L12.1167 42.6165C5.4251 42.6165 0.000689986 37.1919 0.000487222 30.5003C0.000486637 23.8086 5.42497 18.3831 12.1167 18.3831L31.6665 18.3831L31.6665 18.3763Z" fill="url(#paint1_linear_50_4870)"/>
<path d="M29.5833 61C22.9099 61 17.5 55.5901 17.5 48.9166L17.5 42.5502C17.5 29.2033 28.3198 18.3835 41.6667 18.3835L41.6667 48.9167C41.6667 55.5901 36.2568 61 29.5833 61Z" fill="url(#paint2_linear_50_4870)"/>
<mask id="mask1_50_4870" style="mask-type:alpha" maskUnits="userSpaceOnUse" x="17" y="18" width="25" height="43">
<path d="M29.5833 61C22.9099 61 17.5 55.5901 17.5 48.9167L17.5 39.6918C17.5 27.9236 27.04 18.3836 38.8082 18.3836L41.6667 18.3836L41.6667 48.9167C41.6667 55.5901 36.2568 61 29.5833 61Z" fill="black"/>
</mask>
<g mask="url(#mask1_50_4870)">
<g filter="url(#filter1_f_50_4870)">
<path d="M41.667 42.6164L25.0003 42.6164C22.5003 42.895 17.917 44.7055 17.917 49.7192" stroke="black" stroke-width="1.80556"/>
</g>
</g>
<path d="M28.3335 42.6236C28.1952 42.6196 28.0562 42.6167 27.9165 42.6167C22.1635 42.6167 17.4995 45.9838 17.4995 50.1373V42.6167C17.4995 29.2333 28.3495 18.3833 41.7329 18.3833H59.9995C59.9995 31.7668 49.1505 42.6167 35.7671 42.6167H28.3335V42.6236Z" fill="url(#paint3_linear_50_4870)"/>
<path d="M216.28 42.46C213.775 42.46 211.59 41.9745 209.725 41.0033C207.885 40.0067 206.454 38.6139 205.431 36.825C204.409 35.0361 203.898 32.915 203.898 30.4617C203.898 28.0339 204.396 25.9256 205.393 24.1367C206.415 22.3478 207.859 20.9678 209.725 19.9967C211.59 19.0256 213.788 18.54 216.318 18.54C218.822 18.54 220.995 19.0256 222.835 19.9967C224.675 20.9678 226.093 22.3478 227.09 24.1367C228.086 25.9256 228.585 28.0467 228.585 30.5C228.585 32.9278 228.086 35.0489 227.09 36.8633C226.093 38.6522 224.662 40.0322 222.796 41.0033C220.956 41.9745 218.784 42.46 216.28 42.46ZM216.28 36.94C218.196 36.94 219.666 36.365 220.688 35.215C221.71 34.0395 222.221 32.455 222.221 30.4617C222.221 28.4683 221.71 26.9095 220.688 25.785C219.666 24.635 218.196 24.06 216.28 24.06C214.337 24.06 212.842 24.635 211.795 25.785C210.772 26.9095 210.261 28.4683 210.261 30.4617C210.261 32.455 210.772 34.0395 211.795 35.215C212.842 36.365 214.337 36.94 216.28 36.94Z" fill="#262626"/>
<path d="M177.208 51.2V25.2867H174.064V19H180.504V22.7567H182.114C182.932 21.4278 184.018 20.3928 185.373 19.6517C186.753 18.9106 188.414 18.54 190.356 18.54C192.733 18.54 194.739 19.0383 196.374 20.035C198.01 21.0317 199.249 22.4245 200.093 24.2133C200.936 26.0022 201.358 28.0978 201.358 30.5C201.358 32.9022 200.949 35.0106 200.131 36.825C199.313 38.6139 198.125 40.0067 196.566 41.0033C195.007 41.9745 193.116 42.46 190.893 42.46C189.206 42.46 187.762 42.1533 186.561 41.54C185.36 40.9011 184.414 40.0067 183.724 38.8567H183.571V51.2H177.208ZM189.168 36.94C191.11 36.94 192.567 36.365 193.538 35.215C194.509 34.065 194.994 32.4933 194.994 30.5C194.994 28.5067 194.509 26.935 193.538 25.785C192.567 24.635 191.11 24.06 189.168 24.06C187.456 24.06 186.088 24.5456 185.066 25.5167C184.069 26.4622 183.571 27.7783 183.571 29.465V31.535C183.571 33.2217 184.069 34.5506 185.066 35.5217C186.088 36.4672 187.456 36.94 189.168 36.94Z" fill="#262626"/>
<path d="M156.537 42.4217C153.828 42.4217 151.707 41.77 150.174 40.4667C148.64 39.1378 147.874 37.4 147.874 35.2533C147.874 32.9789 148.666 31.2283 150.25 30.0017C151.835 28.775 154.109 28.1617 157.074 28.1617H163.667V27.28C163.667 24.8011 162.185 23.5617 159.22 23.5617C156.639 23.5617 155.08 24.4561 154.544 26.245H148.219C148.73 23.715 149.918 21.7983 151.784 20.495C153.649 19.1917 156.128 18.54 159.22 18.54C162.645 18.54 165.251 19.3067 167.04 20.84C168.855 22.3733 169.762 24.6095 169.762 27.5483V35.7133H172.752V42H166.312V38.2433H164.702C163.91 39.5722 162.849 40.6072 161.52 41.3483C160.191 42.0639 158.53 42.4217 156.537 42.4217ZM157.495 37.5917C158.696 37.5917 159.757 37.3745 160.677 36.94C161.597 36.5056 162.325 35.9306 162.862 35.215C163.399 34.4739 163.667 33.6433 163.667 32.7233V32.3783H157.38C155.08 32.3783 153.93 33.2345 153.93 34.9467C153.93 35.79 154.25 36.4417 154.889 36.9017C155.527 37.3617 156.396 37.5917 157.495 37.5917Z" fill="#262626"/>
<path d="M138.944 42V9.8H143.238V42H138.944Z" fill="#262626"/>
<path d="M123.125 42.46C120.723 42.46 118.64 41.9745 116.876 41.0033C115.113 40.0067 113.746 38.6011 112.775 36.7867C111.829 34.9722 111.356 32.8511 111.356 30.4233C111.356 27.9956 111.829 25.9 112.775 24.1367C113.746 22.3478 115.1 20.9678 116.838 19.9967C118.576 19.0256 120.608 18.54 122.933 18.54C125.156 18.54 127.073 18.9872 128.683 19.8817C130.319 20.7761 131.584 22.0411 132.478 23.6767C133.373 25.3122 133.82 27.2545 133.82 29.5033V31.2283H115.496C115.624 33.6306 116.353 35.5089 117.681 36.8633C119.036 38.1922 120.838 38.8567 123.086 38.8567C124.645 38.8567 125.961 38.5372 127.035 37.8983C128.108 37.2339 128.849 36.2628 129.258 34.985H133.628C133.066 37.3617 131.852 39.2017 129.986 40.505C128.146 41.8083 125.859 42.46 123.125 42.46ZM115.65 28.085H129.68C129.475 26.1939 128.773 24.7245 127.571 23.6767C126.396 22.6289 124.837 22.105 122.895 22.105C120.978 22.105 119.381 22.6289 118.103 23.6767C116.825 24.7245 116.008 26.1939 115.65 28.085Z" fill="#262626"/>
<path d="M79.9733 42L72.6899 19H77.1366L82.4649 36.8633H82.6566L88.9816 19H93.4283L99.7533 36.8633H99.9449L105.273 19H109.643L102.398 42H97.6066L91.2433 24.1367H91.0899L84.7649 42H79.9733Z" fill="#262626"/>
<defs>
<filter id="filter0_f_50_4870" x="9.30572" y="2.25305" width="42.7084" height="26.0611" filterUnits="userSpaceOnUse" color-interpolation-filters="sRGB">
<feFlood flood-opacity="0" result="BackgroundImageFix"/>
<feBlend mode="normal" in="SourceGraphic" in2="BackgroundImageFix" result="shape"/>
<feGaussianBlur stdDeviation="4.51389" result="effect1_foregroundBlur_50_4870"/>
</filter>
<filter id="filter1_f_50_4870" x="7.98638" y="32.6859" width="42.7084" height="26.0611" filterUnits="userSpaceOnUse" color-interpolation-filters="sRGB">
<feFlood flood-opacity="0" result="BackgroundImageFix"/>
<feBlend mode="normal" in="SourceGraphic" in2="BackgroundImageFix" result="shape"/>
<feGaussianBlur stdDeviation="4.51389" result="effect1_foregroundBlur_50_4870"/>
</filter>
<linearGradient id="paint0_linear_50_4870" x1="30.4167" y1="42.6164" x2="30.4167" y2="-6.21834e-07" gradientUnits="userSpaceOnUse">
<stop offset="0.65" stop-color="#141414"/>
<stop offset="1" stop-color="#282828"/>
</linearGradient>
<linearGradient id="paint1_linear_50_4870" x1="0.000487094" y1="42.6165" x2="58.6447" y2="22.8765" gradientUnits="userSpaceOnUse">
<stop stop-color="#282828"/>
<stop offset="1" stop-color="#3C3C3C"/>
</linearGradient>
<linearGradient id="paint2_linear_50_4870" x1="29.5833" y1="18.3835" x2="29.5833" y2="61" gradientUnits="userSpaceOnUse">
<stop offset="0.65" stop-color="#3C3C3C"/>
<stop offset="1" stop-color="#646464"/>
</linearGradient>
<linearGradient id="paint3_linear_50_4870" x1="59.9995" y1="18.3834" x2="1.35535" y2="38.1234" gradientUnits="userSpaceOnUse">
<stop stop-color="#505050"/>
<stop offset="1" stop-color="#787878"/>
</linearGradient>
</defs>
</svg>
