<svg width="60" height="47" viewBox="0 0 60 47" fill="none" xmlns="http://www.w3.org/2000/svg">
<path d="M28.2674 16.2713C28.5511 15.2795 27.9974 14.1613 26.8524 13.4625C23.708 11.549 20.3176 10.1445 16.4521 9.20272C13.7657 8.54712 10.9118 9.01968 8.63205 10.5539C6.55059 11.955 4.53408 13.8752 2.51416 15.7854C12.9009 12.544 19.5486 16.0116 23.8721 17.6491C25.7792 18.3712 27.8436 17.7322 28.264 16.2713H28.2674Z" fill="url(#paint0_linear_9_568)"/>
<path d="M28.1063 9.48563C28.1917 8.46062 27.4262 7.46556 26.1649 6.99632C22.7028 5.70841 19.0969 4.96628 15.1186 4.7666C12.3536 4.62683 9.64666 5.62521 7.71218 7.55874C5.94517 9.32588 4.34563 11.5856 2.74268 13.8386C12.292 8.71021 19.5037 10.8701 24.0699 11.6654C26.0829 12.0149 27.9832 11.0032 28.1063 9.48895V9.48563Z" fill="url(#paint1_linear_9_568)"/>
<path d="M28.1063 9.48563C28.1917 8.46062 27.4262 7.46556 26.1649 6.99632C22.7028 5.70841 19.0969 4.96628 15.1186 4.7666C12.3536 4.62683 9.64666 5.62521 7.71218 7.55874C5.94517 9.32588 4.34563 11.5856 2.74268 13.8386C12.292 8.71021 19.5037 10.8701 24.0699 11.6654C26.0829 12.0149 27.9832 11.0032 28.1063 9.48895V9.48563Z" fill="url(#paint2_linear_9_568)"/>
<path d="M26.3157 2.00771C26.1071 0.999338 25.0921 0.247227 23.7455 0.130749C20.0541 -0.185406 16.3766 0.0675182 12.4939 0.936113C9.79389 1.5418 7.4732 3.22574 6.16075 5.59856C4.9611 7.76837 4.0588 10.3708 3.14966 12.9633C10.8876 5.48208 18.4342 5.63183 23.0482 5.17591C25.0852 4.97623 26.6267 3.4953 26.319 2.00438L26.3157 2.00771Z" fill="url(#paint3_linear_9_568)"/>
<path d="M30.0001 29.4166C28.8107 20.4445 25.2664 10.6537 15.7751 7.93146C14.3431 7.52212 12.7538 8.06458 11.9951 9.31588C11.3115 10.4473 11.3115 12.0515 14.0492 13.945C14.0492 13.945 17.0466 15.6623 18.441 19.3463C18.7043 20.0385 17.901 20.6575 17.2721 20.2449C13.0341 17.4627 2.58239 9.65865 9.29498 2.25066C9.29498 2.25066 -4.06526 10.2677 1.24944 23.7159C2.22352 26.1786 3.73419 28.3983 5.5593 30.3484C11.3354 36.5185 20.1089 41.3773 30.0001 45.9865V29.4166Z" fill="url(#paint4_linear_9_568)"/>
<path d="M31.733 16.2713C31.4493 15.2795 32.0029 14.1613 33.1479 13.4625C36.2923 11.549 39.6828 10.1445 43.5484 9.20272C46.2348 8.54712 49.0887 9.01968 51.3683 10.5539C53.4498 11.955 55.4662 13.8752 57.4862 15.7854C47.0994 12.544 40.4518 16.0116 36.1283 17.6491C34.2211 18.3712 32.1567 17.7322 31.7364 16.2713H31.733Z" fill="url(#paint5_linear_9_568)"/>
<path d="M31.8895 9.48563C31.8041 8.46062 32.5696 7.46556 33.8309 6.99632C37.293 5.70841 40.8989 4.96628 44.8772 4.7666C47.6422 4.62683 50.3491 5.62521 52.2836 7.55874C54.0506 9.32588 55.6501 11.5856 57.2531 13.8386C47.7038 8.71021 40.4921 10.8701 35.9259 11.6654C33.9129 12.0149 32.0126 11.0032 31.8895 9.48895V9.48563Z" fill="url(#paint6_linear_9_568)"/>
<path d="M31.8895 9.48563C31.8041 8.46062 32.5696 7.46556 33.8309 6.99632C37.293 5.70841 40.8989 4.96628 44.8772 4.7666C47.6422 4.62683 50.3491 5.62521 52.2836 7.55874C54.0506 9.32588 55.6501 11.5856 57.2531 13.8386C47.7038 8.71021 40.4921 10.8701 35.9259 11.6654C33.9129 12.0149 32.0126 11.0032 31.8895 9.48895V9.48563Z" fill="url(#paint7_linear_9_568)"/>
<path d="M33.6813 2.00771C33.8898 0.999338 34.9049 0.247227 36.2515 0.130749C39.9427 -0.185406 43.6203 0.0675182 47.5029 0.936113C50.2031 1.5418 52.5237 3.22574 53.8361 5.59856C55.0358 7.76837 55.9382 10.3708 56.8472 12.9633C49.1093 5.48208 41.5628 5.63183 36.9487 5.17591C34.9117 4.97623 33.3703 3.4953 33.6779 2.00438L33.6813 2.00771Z" fill="url(#paint8_linear_9_568)"/>
<path d="M30 29.4166C31.1894 20.4445 34.7337 10.6537 44.225 7.93146C45.657 7.52212 47.2463 8.06458 48.005 9.31588C48.6886 10.4473 48.6886 12.0515 45.951 13.945C45.951 13.945 42.9535 15.6623 41.559 19.3463C41.2958 20.0385 42.0991 20.6575 42.7279 20.2449C46.966 17.4627 57.4177 9.65865 50.7051 2.25066C50.7051 2.25066 64.0653 10.2677 58.7507 23.7159C57.7766 26.1786 56.2659 28.3983 54.4408 30.3484C48.6647 36.5185 39.8912 41.3773 30 45.9865V29.4166Z" fill="url(#paint9_linear_9_568)"/>
<defs>
<linearGradient id="paint0_linear_9_568" x1="10.6691" y1="16.4776" x2="38.5711" y2="6.04567" gradientUnits="userSpaceOnUse">
<stop offset="0.19" stop-color="#9F0737"/>
<stop offset="0.2" stop-color="#A40639"/>
<stop offset="0.29" stop-color="#BC0441"/>
<stop offset="0.39" stop-color="#CE0248"/>
<stop offset="0.51" stop-color="#DB004D"/>
<stop offset="0.67" stop-color="#E20050"/>
<stop offset="1" stop-color="#E50051"/>
</linearGradient>
<linearGradient id="paint1_linear_9_568" x1="14.8349" y1="6.39729" x2="15.678" y2="14.1131" gradientUnits="userSpaceOnUse">
<stop stop-color="#E72B6E"/>
<stop offset="0.08" stop-color="#E83677"/>
<stop offset="0.28" stop-color="#EA4D88"/>
<stop offset="0.47" stop-color="#EB5A93"/>
<stop offset="0.64" stop-color="#EC5F97"/>
</linearGradient>
<linearGradient id="paint2_linear_9_568" x1="12.8047" y1="9.2926" x2="37.0029" y2="9.2926" gradientUnits="userSpaceOnUse">
<stop offset="0.19" stop-color="#9F0737"/>
<stop offset="0.2" stop-color="#A40639"/>
<stop offset="0.29" stop-color="#BC0441"/>
<stop offset="0.39" stop-color="#CE0248"/>
<stop offset="0.51" stop-color="#DB004D"/>
<stop offset="0.67" stop-color="#E20050"/>
<stop offset="1" stop-color="#E50051"/>
</linearGradient>
<linearGradient id="paint3_linear_9_568" x1="4.43476" y1="6.48379" x2="57.8108" y2="6.48379" gradientUnits="userSpaceOnUse">
<stop offset="0.19" stop-color="#9F0737"/>
<stop offset="0.2" stop-color="#A40639"/>
<stop offset="0.29" stop-color="#BC0441"/>
<stop offset="0.39" stop-color="#CE0248"/>
<stop offset="0.51" stop-color="#DB004D"/>
<stop offset="0.67" stop-color="#E20050"/>
<stop offset="1" stop-color="#E50051"/>
</linearGradient>
<linearGradient id="paint4_linear_9_568" x1="-10.4839" y1="-2.78119" x2="37.4613" y2="46.4589" gradientUnits="userSpaceOnUse">
<stop stop-color="#ED6C77"/>
<stop offset="0.25" stop-color="#EA4A6B"/>
<stop offset="0.83" stop-color="#E50051"/>
</linearGradient>
<linearGradient id="paint5_linear_9_568" x1="39.5085" y1="13.4326" x2="71.1165" y2="13.4326" gradientUnits="userSpaceOnUse">
<stop stop-color="#F39200"/>
<stop offset="0.16" stop-color="#ED6C07"/>
<stop offset="0.33" stop-color="#E94D0D"/>
<stop offset="0.47" stop-color="#E63910"/>
<stop offset="0.56" stop-color="#E63312"/>
</linearGradient>
<linearGradient id="paint6_linear_9_568" x1="45.1609" y1="6.39729" x2="44.3178" y2="14.1131" gradientUnits="userSpaceOnUse">
<stop stop-color="#E72B6E"/>
<stop offset="0.08" stop-color="#E83677"/>
<stop offset="0.28" stop-color="#EA4D88"/>
<stop offset="0.47" stop-color="#EB5A93"/>
<stop offset="0.64" stop-color="#EC5F97"/>
</linearGradient>
<linearGradient id="paint7_linear_9_568" x1="37.2486" y1="9.2926" x2="61.4434" y2="9.2926" gradientUnits="userSpaceOnUse">
<stop stop-color="#F39200"/>
<stop offset="0.16" stop-color="#ED6C07"/>
<stop offset="0.33" stop-color="#E94D0D"/>
<stop offset="0.47" stop-color="#E63910"/>
<stop offset="0.56" stop-color="#E63312"/>
</linearGradient>
<linearGradient id="paint8_linear_9_568" x1="34.9288" y1="6.48379" x2="88.3048" y2="6.48379" gradientUnits="userSpaceOnUse">
<stop stop-color="#F39200"/>
<stop offset="0.16" stop-color="#ED6C07"/>
<stop offset="0.33" stop-color="#E94D0D"/>
<stop offset="0.47" stop-color="#E63910"/>
<stop offset="0.56" stop-color="#E63312"/>
</linearGradient>
<linearGradient id="paint9_linear_9_568" x1="44.9974" y1="-11.557" x2="44.9974" y2="51.035" gradientUnits="userSpaceOnUse">
<stop stop-color="#F39200"/>
<stop offset="0.19" stop-color="#F28D00"/>
<stop offset="0.4" stop-color="#F08003"/>
<stop offset="0.63" stop-color="#ED6907"/>
<stop offset="0.85" stop-color="#E94A0D"/>
<stop offset="1" stop-color="#E63312"/>
</linearGradient>
</defs>
</svg>
