<svg width="300" height="48" viewBox="0 0 300 48" fill="none" xmlns="http://www.w3.org/2000/svg">
<path d="M28.2674 16.625C28.5511 15.6117 27.9974 14.4692 26.8524 13.7552C23.708 11.8 20.3176 10.3651 16.4521 9.40279C13.7657 8.73293 10.9118 9.21577 8.63205 10.7833C6.55059 12.2149 4.53408 14.1768 2.51416 16.1286C12.9009 12.8167 19.5486 16.3597 23.8721 18.0328C25.7792 18.7706 27.8436 18.1177 28.264 16.625H28.2674Z" fill="url(#paint0_linear_49_2621)"/>
<path d="M28.1063 9.69183C28.1917 8.64454 27.4262 7.62785 26.1649 7.14841C22.7028 5.8325 19.0969 5.07423 15.1186 4.87021C12.3536 4.72741 9.64666 5.74749 7.71218 7.72306C5.94517 9.52861 4.34563 11.8374 2.74268 14.1394C12.292 8.89956 19.5037 11.1064 24.0699 11.919C26.0829 12.2761 27.9832 11.2424 28.1063 9.69522V9.69183Z" fill="url(#paint1_linear_49_2621)"/>
<path d="M28.1063 9.69183C28.1917 8.64454 27.4262 7.62785 26.1649 7.14841C22.7028 5.8325 19.0969 5.07423 15.1186 4.87021C12.3536 4.72741 9.64666 5.74749 7.71218 7.72306C5.94517 9.52861 4.34563 11.8374 2.74268 14.1394C12.292 8.89956 19.5037 11.1064 24.0699 11.919C26.0829 12.2761 27.9832 11.2424 28.1063 9.69522V9.69183Z" fill="url(#paint2_linear_49_2621)"/>
<path d="M26.3157 2.05136C26.1071 1.02106 25.0921 0.252601 23.7455 0.133592C20.0541 -0.189436 16.3766 0.068986 12.4939 0.956463C9.79389 1.57531 7.4732 3.29586 6.16075 5.72026C4.9611 7.93725 4.0588 10.5963 3.14966 13.2451C10.8876 5.60126 18.4342 5.75426 23.0482 5.28843C25.0852 5.08441 26.6267 3.57128 26.319 2.04796L26.3157 2.05136Z" fill="url(#paint3_linear_49_2621)"/>
<path d="M30.0001 30.0561C28.8107 20.8889 25.2664 10.8853 15.7751 8.10388C14.3431 7.68564 12.7538 8.23989 11.9951 9.5184C11.3115 10.6745 11.3115 12.3135 14.0492 14.2482C14.0492 14.2482 17.0466 16.0028 18.441 19.7669C18.7043 20.4741 17.901 21.1065 17.2721 20.685C13.0341 17.8423 2.58239 9.86862 9.29498 2.29958C9.29498 2.29958 -4.06526 10.4909 1.24944 24.2315C2.22352 26.7477 3.73419 29.0156 5.5593 31.0082C11.3354 37.3124 20.1089 42.2768 30.0001 46.9862V30.0561Z" fill="url(#paint4_linear_49_2621)"/>
<path d="M31.733 16.625C31.4493 15.6117 32.0029 14.4692 33.1479 13.7552C36.2923 11.8 39.6828 10.3651 43.5484 9.40279C46.2348 8.73293 49.0887 9.21577 51.3683 10.7833C53.4498 12.2149 55.4662 14.1768 57.4862 16.1286C47.0994 12.8167 40.4518 16.3597 36.1283 18.0328C34.2211 18.7706 32.1567 18.1177 31.7364 16.625H31.733Z" fill="url(#paint5_linear_49_2621)"/>
<path d="M31.8895 9.69183C31.8041 8.64454 32.5696 7.62785 33.8309 7.14841C37.293 5.8325 40.8989 5.07423 44.8772 4.87021C47.6422 4.72741 50.3491 5.74749 52.2836 7.72306C54.0506 9.52861 55.6501 11.8374 57.2531 14.1394C47.7038 8.89956 40.4921 11.1064 35.9259 11.919C33.9129 12.2761 32.0126 11.2424 31.8895 9.69522V9.69183Z" fill="url(#paint6_linear_49_2621)"/>
<path d="M31.8895 9.69183C31.8041 8.64454 32.5696 7.62785 33.8309 7.14841C37.293 5.8325 40.8989 5.07423 44.8772 4.87021C47.6422 4.72741 50.3491 5.74749 52.2836 7.72306C54.0506 9.52861 55.6501 11.8374 57.2531 14.1394C47.7038 8.89956 40.4921 11.1064 35.9259 11.919C33.9129 12.2761 32.0126 11.2424 31.8895 9.69522V9.69183Z" fill="url(#paint7_linear_49_2621)"/>
<path d="M33.6813 2.05136C33.8898 1.02106 34.9049 0.252601 36.2515 0.133592C39.9427 -0.189436 43.6203 0.068986 47.5029 0.956463C50.2031 1.57531 52.5237 3.29586 53.8361 5.72026C55.0358 7.93725 55.9382 10.5963 56.8472 13.2451C49.1093 5.60126 41.5628 5.75426 36.9487 5.28843C34.9117 5.08441 33.3703 3.57128 33.6779 2.04796L33.6813 2.05136Z" fill="url(#paint8_linear_49_2621)"/>
<path d="M30 30.0561C31.1894 20.8889 34.7337 10.8853 44.225 8.10388C45.657 7.68564 47.2463 8.23989 48.005 9.5184C48.6886 10.6745 48.6886 12.3135 45.951 14.2482C45.951 14.2482 42.9535 16.0028 41.559 19.7669C41.2958 20.4741 42.0991 21.1065 42.7279 20.685C46.966 17.8423 57.4177 9.86862 50.7051 2.29958C50.7051 2.29958 64.0653 10.4909 58.7507 24.2315C57.7766 26.7477 56.2659 29.0156 54.4408 31.0082C48.6647 37.3124 39.8912 42.2768 30 46.9862V30.0561Z" fill="url(#paint9_linear_49_2621)"/>
<path d="M192.789 39.0289V7.57578H193.491L212.974 31.686V7.57578H216.145V39.0289H215.423L196.114 15.2112V39.0289H192.789Z" fill="#F5F5F5"/>
<path d="M221.335 7.57578H224.968V39.0289H221.335V7.57578Z" fill="#F5F5F5"/>
<path d="M229.12 10.6552V7.57578H246.767V10.6552H239.585V39.0289H236.302V10.6552H229.12Z" fill="#F5F5F5"/>
<path d="M250.919 7.57578H268.565V10.6552H254.168V21.736H268.565V24.8155H254.168V35.9495H268.565V39.0289H250.919V7.57578Z" fill="#F5F5F5"/>
<path d="M274.275 39.0289V7.57578H278.968C283.731 7.57578 287.185 7.95488 289.337 8.70979C292.424 9.78062 294.838 11.633 296.579 14.2702C298.315 16.9073 299.187 20.05 299.187 23.6981C299.187 26.8474 298.498 29.6209 297.12 32.0153C295.744 34.4097 293.953 36.1789 291.751 37.3162C289.549 38.457 286.466 39.0256 282.496 39.0256H274.275V39.0289ZM277.329 36.0558H279.098C283.5 36.0558 286.552 35.7865 288.256 35.2444C290.65 34.4762 292.535 33.0894 293.906 31.0908C295.275 29.0888 295.963 26.6446 295.963 23.7513C295.963 20.7184 295.219 18.1244 293.734 15.9761C292.249 13.8278 290.175 12.3513 287.522 11.5531C285.532 10.9546 282.247 10.6552 277.675 10.6552H277.332V36.0558H277.329Z" fill="#F5F5F5"/>
<path d="M100.404 39.0289L86.9012 7.57578H80.7246L67.1875 39.0289H73.5163L83.8501 15.9162L87.8112 24.8653H83.8501V30.705H90.3921L94.0757 39.0289H100.404Z" fill="#F5F5F5"/>
<path d="M142.77 7.06015C147.22 7.06015 151.047 8.66797 154.25 11.8869C157.451 15.1059 159.053 19.0291 159.053 23.6565C159.053 28.2839 157.472 32.1208 154.315 35.2965C151.153 38.4722 147.322 40.0602 142.811 40.0602C138.3 40.0602 134.166 38.4291 131.043 35.1702C127.919 31.9115 126.355 28.0381 126.355 23.5501C126.355 20.5472 127.083 17.7833 128.538 15.262C129.992 12.7406 131.995 10.7442 134.541 9.27255C137.086 7.79762 139.83 7.06347 142.77 7.06347V7.06015ZM142.705 12.9134C139.793 12.9134 137.345 13.9232 135.363 15.9463C133.378 17.9693 132.389 20.5372 132.389 23.6565C132.389 27.1313 133.637 29.8785 136.135 31.9015C138.076 33.4827 140.302 34.2733 142.815 34.2733C145.652 34.2733 148.073 33.2469 150.072 31.1973C152.071 29.1476 153.07 26.6196 153.07 23.6166C153.07 20.6136 152.064 18.0956 150.052 16.0227C148.039 13.9498 145.592 12.9167 142.709 12.9167L142.705 12.9134Z" fill="#F5F5F5"/>
<path d="M108.966 39.0289H103.013V25.003H112.568C114.493 25.003 116.326 24.1234 117.491 22.6477C118.623 20.8294 118.599 18.4676 117.434 16.4286L117.318 16.2803C116.153 14.7651 114.293 13.8592 112.344 13.8592H103V8.0914H112.344C116.166 8.0914 119.81 9.86359 122.091 12.8315L122.502 13.3948C124.881 17.3575 124.872 22.1141 122.472 25.8099L122.346 25.9878C120.065 28.9821 116.41 30.7707 112.565 30.7707H108.962V39.0289H108.966Z" fill="#F5F5F5"/>
<path d="M183.552 7.57578V29.6889C183.552 33.7464 180.244 37.0521 176.179 37.0521C172.116 37.0521 168.811 33.7464 168.811 29.6889V7.57578H165.801V29.6889C165.801 35.4076 170.457 40.0602 176.179 40.0602C181.902 40.0602 186.561 35.4076 186.561 29.6889V7.57578H183.552Z" fill="#F5F5F5"/>
<defs>
<linearGradient id="paint0_linear_49_2621" x1="10.6691" y1="16.8358" x2="38.7159" y2="6.57284" gradientUnits="userSpaceOnUse">
<stop offset="0.19" stop-color="#949494"/>
<stop offset="1" stop-color="white"/>
</linearGradient>
<linearGradient id="paint1_linear_49_2621" x1="14.8349" y1="6.53635" x2="15.7146" y2="14.4158" gradientUnits="userSpaceOnUse">
<stop stop-color="#E72B6E"/>
<stop offset="0.08" stop-color="#E83677"/>
<stop offset="0.28" stop-color="#EA4D88"/>
<stop offset="0.47" stop-color="#EB5A93"/>
<stop offset="0.64" stop-color="#EC5F97"/>
</linearGradient>
<linearGradient id="paint2_linear_49_2621" x1="12.8047" y1="9.49461" x2="37.0029" y2="9.49461" gradientUnits="userSpaceOnUse">
<stop offset="0.19" stop-color="#949494"/>
<stop offset="1" stop-color="white"/>
</linearGradient>
<linearGradient id="paint3_linear_49_2621" x1="4.43476" y1="6.62474" x2="57.8108" y2="6.62474" gradientUnits="userSpaceOnUse">
<stop offset="0.19" stop-color="#9F9F9F"/>
<stop offset="1" stop-color="white"/>
</linearGradient>
<linearGradient id="paint4_linear_49_2621" x1="-10.4839" y1="-2.84165" x2="38.5204" y2="46.4152" gradientUnits="userSpaceOnUse">
<stop stop-color="#E8E8E8"/>
<stop offset="0.83" stop-color="#BEBEBE"/>
</linearGradient>
<linearGradient id="paint5_linear_49_2621" x1="39.5085" y1="13.7246" x2="71.1165" y2="13.7246" gradientUnits="userSpaceOnUse">
<stop stop-color="#E4E4E4"/>
<stop offset="0.56" stop-color="#AEAEAE"/>
</linearGradient>
<linearGradient id="paint6_linear_49_2621" x1="45.1609" y1="6.53635" x2="44.2812" y2="14.4158" gradientUnits="userSpaceOnUse">
<stop stop-color="#E72B6E"/>
<stop offset="0.08" stop-color="#E83677"/>
<stop offset="0.28" stop-color="#EA4D88"/>
<stop offset="0.47" stop-color="#EB5A93"/>
<stop offset="0.64" stop-color="#EC5F97"/>
</linearGradient>
<linearGradient id="paint7_linear_49_2621" x1="37.2486" y1="9.49461" x2="61.4434" y2="9.49461" gradientUnits="userSpaceOnUse">
<stop stop-color="#EAEAEA"/>
<stop offset="0.56" stop-color="#A4A4A4"/>
</linearGradient>
<linearGradient id="paint8_linear_49_2621" x1="34.9288" y1="6.62474" x2="88.3048" y2="6.62474" gradientUnits="userSpaceOnUse">
<stop stop-color="#EBEBEB"/>
<stop offset="0.56" stop-color="#A6A6A6"/>
</linearGradient>
<linearGradient id="paint9_linear_49_2621" x1="44.9974" y1="-11.8083" x2="44.9974" y2="52.1444" gradientUnits="userSpaceOnUse">
<stop stop-color="#EBEBEB"/>
<stop offset="1" stop-color="#E9E9E9"/>
</linearGradient>
</defs>
</svg>
